<svg width="40" height="40" viewBox="0 0 40 40" fill="none" xmlns="http://www.w3.org/2000/svg">
<path d="M19.9993 36.6667C21.8327 36.6667 23.3327 35.1667 23.3327 33.3334H16.666C16.666 35.1667 18.166 36.6667 19.9993 36.6667ZM29.9994 26.6667V18.3334C29.9994 13.2167 27.2827 8.93335 22.4993 7.80002V6.66669C22.4993 5.28335 21.3827 4.16669 19.9993 4.16669C18.616 4.16669 17.4993 5.28335 17.4993 6.66669V7.80002C12.7327 8.93335 9.99935 13.2 9.99935 18.3334V26.6667L6.66602 30V31.6667H33.3327V30L29.9994 26.6667ZM26.666 28.3334H13.3327V18.3334C13.3327 14.2 15.8493 10.8334 19.9993 10.8334C24.1493 10.8334 26.666 14.2 26.666 18.3334V28.3334Z" fill="#313945"/>
</svg>
