<svg width="60" height="57" viewBox="0 0 60 57" fill="none" xmlns="http://www.w3.org/2000/svg">
<path d="M48.75 53.4375H20.625C19.6307 53.4366 18.6775 53.0609 17.9744 52.393C17.2714 51.7251 16.876 50.8195 16.875 49.875V39.1875H20.625V49.875H48.75V10.6875H31.875V7.125H48.75C49.7443 7.12594 50.6975 7.50158 51.4006 8.16947C52.1036 8.83737 52.499 9.74296 52.5 10.6875V49.875C52.499 50.8195 52.1036 51.7251 51.4006 52.393C50.6975 53.0609 49.7443 53.4366 48.75 53.4375Z" fill="#313945"/>
<path d="M31.875 17.8125H45V21.375H31.875V17.8125ZM30 26.7188H45V30.2812H30V26.7188ZM28.125 35.625H45V39.1875H28.125V35.625ZM16.875 33.8438C14.3894 33.8414 12.0062 32.9023 10.2486 31.2326C8.491 29.5628 7.50248 27.2989 7.5 24.9375V5.34375H11.25V24.9375C11.25 26.3548 11.8426 27.714 12.8975 28.7161C13.9524 29.7183 15.3832 30.2812 16.875 30.2812C18.3668 30.2812 19.7976 29.7183 20.8525 28.7161C21.9074 27.714 22.5 26.3548 22.5 24.9375V8.90625C22.5 8.43383 22.3025 7.98077 21.9508 7.64672C21.5992 7.31267 21.1223 7.125 20.625 7.125C20.1277 7.125 19.6508 7.31267 19.2992 7.64672C18.9475 7.98077 18.75 8.43383 18.75 8.90625V26.7188H15V8.90625C15 7.489 15.5926 6.1298 16.6475 5.12765C17.7024 4.1255 19.1332 3.5625 20.625 3.5625C22.1168 3.5625 23.5476 4.1255 24.6025 5.12765C25.6574 6.1298 26.25 7.489 26.25 8.90625V24.9375C26.2475 27.2989 25.259 29.5628 23.5014 31.2326C21.7438 32.9023 19.3606 33.8414 16.875 33.8438Z" fill="#313945"/>
</svg>
