<svg width="710" height="667" viewBox="0 0 410 467" fill="none" xmlns="http://www.w3.org/2000/svg">
<mask id="mask0_241_752" style="mask-type:alpha" maskUnits="userSpaceOnUse" x="0" y="0" width="410" height="467">
<g clip-path="url(#clip0_241_752)">
<path d="M38.0143 405.628C32.5894 407.998 26.7013 409.293 20.7179 409.433C18.0009 409.539 15.2896 409.122 12.7514 408.207C10.2132 407.293 7.902 405.901 5.96048 404.117C4.01896 402.333 2.48835 400.195 1.46317 397.835C0.437986 395.475 -0.0600019 392.943 -4.59385e-05 390.395C-0.0448006 387.644 0.512418 384.913 1.63725 382.371C2.76208 379.829 4.43068 377.531 6.54015 375.616C8.64962 373.702 11.1552 372.213 13.9025 371.241C16.6498 370.269 19.5804 369.834 22.5138 369.964C26.8661 370.168 31.1769 370.858 35.3545 372.02C35.8867 372.046 36.4121 371.897 36.8388 371.598H37.7656V381.39H36.4566C36.0266 378.464 34.4147 375.805 31.9534 373.96C29.4921 372.115 26.3691 371.226 23.2284 371.475C11.8668 371.475 6.06035 380.306 6.06035 390.032C6.06035 402.425 15.3538 407.924 22.7756 407.924C26.2154 407.901 29.6004 407.114 32.6528 405.628V398.024C32.6528 394.59 31.3596 393.427 27.4877 393.427H25.1002V392.34H42.5275V393.427C39.2996 393.609 38.009 394.636 38.009 397.237L38.0143 405.628Z" fill="#C5C8CF"/>
<path d="M65.6434 409.433C52.9964 409.433 42.3442 401.828 42.3442 390.515C42.3442 378.496 52.2189 369.962 65.9654 369.962C78.1621 369.962 88.6206 377.76 88.6206 388.641C88.6199 391.434 88.0192 394.198 86.8543 396.769C85.6893 399.34 83.984 401.665 81.8399 403.605C79.6957 405.545 77.1567 407.061 74.3741 408.062C71.5915 409.064 68.6223 409.53 65.6434 409.433V409.433ZM64.29 371.475C52.9283 371.475 48.4099 381.39 48.4099 388.646C48.4099 399.952 56.6065 407.929 66.9969 407.929C77.5129 407.929 82.5497 399.226 82.5497 390.64C82.5523 379.393 74.9369 371.477 64.29 371.477V371.475Z" fill="#C5C8CF"/>
<path d="M94.6963 377.279C94.6963 373.845 94.2435 372.02 89.7224 372.02H87.471V370.869C89.2773 370.81 93.733 370.57 95.6047 370.506C99.152 370.388 104.058 370.325 105.291 370.325C110.969 370.325 115.94 371.112 118.263 372.684C119.486 373.383 120.493 374.37 121.182 375.548C121.871 376.725 122.219 378.051 122.189 379.393C122.067 381.231 121.266 382.972 119.924 384.317C118.582 385.663 116.782 386.529 114.833 386.767V386.89C120.899 388.582 124.446 392.267 124.446 396.986C124.446 401.76 120.899 408.469 110.508 408.469H86.8872V407.321H88.3715C93.6623 407.321 94.6963 406.17 94.6963 402.363V377.279ZM100.053 386.588H107.089C113.286 386.588 116.383 384.292 116.383 379.577C116.383 375.346 113.671 371.483 105.733 371.483C104.317 371.483 101.668 371.605 100.055 371.664L100.053 386.588ZM100.053 400.612C100.053 405.209 101.99 406.84 107.411 406.84C115.93 406.84 118.383 401.885 118.383 397.17C118.383 392.51 114.574 387.741 107.021 387.741H100.053V400.612Z" fill="#C5C8CF"/>
<path d="M141.297 408.466H125.616V407.318C129.616 407.137 130.454 406.168 130.454 402.118V376.362C130.454 373.097 129.229 372.191 125.616 372.01V370.859H141.297V372.01C137.232 372.01 135.8 372.856 135.8 376.916V402.547C135.8 406.109 136.831 407.321 141.297 407.321V408.466Z" fill="#C5C8CF"/>
<path d="M172.71 394.867H171.484C170.961 390.577 169.741 390.093 167.097 390.093H156.191V402.969C156.191 405.751 157.288 406.293 159.675 406.293H169.623C174.142 406.293 175.498 404.662 177.113 399.459H178.273L177.239 408.466H142.96V407.318H144.766C149.929 407.318 150.832 405.986 150.832 402.361V376.85C150.832 373.462 149.992 372.012 145.669 372.012H144.248V370.862H175.228L175.752 379.266H174.592C173.752 374.115 172.139 373.038 169.817 373.038H156.204V387.908H167.754C170.079 387.908 171.176 386.88 171.498 383.375H172.723L172.71 394.867Z" fill="#C5C8CF"/>
<path d="M188.791 402.785C188.791 406.416 190.338 407.321 193.953 407.321H195.438V408.469H177.173V407.321H178.27C182.079 407.321 183.432 406.352 183.432 402.302V376.857C183.432 373.109 182.335 372.02 178.594 372.02H177.173V370.869C178.72 370.869 182.67 370.624 185.307 370.506C187.943 370.388 189.233 370.325 193.435 370.325C205.375 370.325 210.732 374.922 210.732 381.086C210.666 383.38 209.786 385.588 208.232 387.362C206.677 389.135 204.536 390.373 202.147 390.878C204.742 392.823 207.199 394.923 209.504 397.165L214.606 401.939C217.862 405.415 222.409 407.598 227.321 408.045V409.131C216.025 409.622 213.122 407.318 207.378 401.939L203.119 397.948C201.084 395.967 198.858 394.167 196.469 392.571C194.857 392.63 193.823 392.689 192.082 392.689C190.66 392.689 189.82 392.63 188.791 392.571V402.785ZM188.791 391.423C190.12 391.552 191.456 391.591 192.791 391.541C199.954 391.541 204.666 388.703 204.666 381.449C204.666 375.827 201.954 371.475 192.014 371.475C190.937 371.454 189.86 371.495 188.788 371.598L188.791 391.423Z" fill="#C5C8CF"/>
<path d="M263.642 409.506L230.209 376.747V402.677C230.209 407.029 231.24 407.937 236.725 407.937V409.087H221.753V407.937H222.015C226.017 407.937 227.305 406.668 227.305 403.887V374.146C225.704 373.138 223.813 372.611 221.884 372.635V371.487H232.018L262.417 401.169V377.112C262.417 373.433 261.252 372.761 256.092 372.638V371.49H271.2V372.638C266.362 372.638 265.328 373.425 265.328 375.78V409.509L263.642 409.506Z" fill="#C5C8CF"/>
<path d="M292.986 409.433C280.339 409.433 269.687 401.828 269.687 390.515C269.687 378.496 279.564 369.962 293.308 369.962C305.504 369.962 315.963 377.76 315.963 388.641C315.962 391.434 315.361 394.198 314.197 396.769C313.032 399.34 311.326 401.665 309.182 403.605C307.038 405.545 304.499 407.061 301.716 408.062C298.934 409.064 295.965 409.53 292.986 409.433V409.433ZM291.632 371.475C280.271 371.475 275.757 381.39 275.757 388.646C275.757 399.952 283.954 407.929 294.344 407.929C304.866 407.929 309.897 399.226 309.897 390.64C309.895 379.393 302.282 371.477 291.632 371.477V371.475Z" fill="#C5C8CF"/>
<path d="M337.773 376.916C337.773 372.991 336.676 372.01 332.872 372.01H331.579V370.859C333.966 370.742 337.131 370.614 340.678 370.496C344.226 370.379 348.168 370.315 351.522 370.315C368.561 370.315 376.111 378.41 376.111 388.389C376.111 397.519 368.561 408.457 352.234 408.457H331.579V407.309H332.676C336.16 407.309 337.775 406.403 337.775 402.893L337.773 376.916ZM343.131 403.997C343.131 406.475 343.325 407.321 348.422 407.321C357.061 407.321 360.684 406.17 364.684 402.415C368.212 398.879 370.133 394.197 370.043 389.357C370.223 384.555 368.367 379.881 364.881 376.357C361.909 373.575 357.328 371.451 348.291 371.451C345.647 371.451 343.904 371.632 343.129 371.696L343.131 403.997Z" fill="#C5C8CF"/>
<path d="M404.453 394.867H403.225C402.701 390.577 401.481 390.093 398.837 390.093H387.921V402.969C387.921 405.751 389.018 406.293 391.405 406.293H401.353C405.869 406.293 407.225 404.662 408.84 399.459H410L408.966 408.466H374.698V407.318H376.504C381.667 407.318 382.57 405.986 382.57 402.361V376.85C382.57 373.462 381.732 372.012 377.407 372.012H375.986V370.862H406.966L407.489 379.266H406.33C405.489 374.115 403.877 373.038 401.555 373.038H387.942V387.908H399.492C401.816 387.908 402.913 386.88 403.235 383.375H404.463L404.453 394.867Z" fill="#C5C8CF"/>
<path d="M30.4064 452.218H29.1629C28.6393 447.862 27.3932 447.374 24.7125 447.374H13.6389V460.438C13.6389 463.262 14.7541 463.814 17.1782 463.814H27.265C31.8489 463.814 33.2233 462.155 34.8568 456.879H36.0323L34.9851 466.021H0.214355V464.854H2.04688C7.28265 464.854 8.20414 463.505 8.20414 459.827V433.941C8.20414 430.507 7.35332 429.035 2.96837 429.035H1.52591V427.87H32.9589L33.4824 436.396H32.3044C31.451 431.179 29.8148 430.077 27.4561 430.077H13.6389V445.163H25.3618C27.7179 445.163 28.8331 444.123 29.1629 440.564H30.4064V452.218Z" fill="#C5C8CF"/>
<path d="M67.5439 466.019H38.2681V464.851H40.4304C43.4436 464.851 44.5562 463.934 44.5562 460.804V433.632C44.5562 430.382 43.5091 429.032 39.3807 429.032H38.4644V427.867H57.787V429.032H55.3655C51.1114 429.032 49.9936 429.464 49.9936 433.266V461.54C49.9936 463.195 50.7161 463.809 52.6115 463.809H62.2374C66.1014 463.809 67.2795 462.398 71.4 457.06H72.5754L67.5439 466.019Z" fill="#C5C8CF"/>
<path d="M91.5211 456.695C92.0135 459.114 93.3858 461.297 95.4041 462.874C97.4224 464.451 99.9618 465.323 102.59 465.342C106.977 465.342 111.626 462.953 111.626 458.108C111.626 449.277 90.6049 446.579 90.6049 435.842C90.6049 430.75 95.5788 426.947 102.262 426.947C107.76 426.947 108.878 428.481 111.163 428.481C111.402 428.494 111.64 428.444 111.849 428.335C112.058 428.226 112.23 428.064 112.344 427.867H113.391L114.504 435.658H113.391C112.617 433.596 111.196 431.801 109.314 430.51C107.432 429.218 105.178 428.49 102.846 428.422C98.5239 428.422 95.516 430.752 95.516 434.186C95.516 442.894 116.54 445.225 116.54 456.509C116.54 462.518 110.844 466.995 103.189 466.995C100.109 466.69 97.0638 466.135 94.0866 465.337C93.8256 465.339 93.5692 465.402 93.3407 465.52C93.1121 465.638 92.9186 465.808 92.7777 466.014H91.6651L90.2881 456.692L91.5211 456.695Z" fill="#C5C8CF"/>
<path d="M131.672 449.091L127.873 458.719C127.275 459.954 126.836 461.252 126.564 462.585C126.564 464.24 128.266 464.851 131.868 464.851H132.915V466.019H117.784V464.851C122.043 464.792 122.758 464.115 124.852 458.782L136.771 428.297L136.182 426.947H141.879L155.568 460.99C155.817 462.24 156.584 463.347 157.7 464.071C158.816 464.794 160.192 465.076 161.529 464.854V466.021H143.523V464.854H145.224C148.96 464.854 150.332 464.488 150.332 462.771C150.267 461.897 150.023 461.042 149.615 460.254L145.214 449.091H131.672ZM138.352 432.099L132.784 446.39H144.114L138.352 432.099Z" fill="#C5C8CF"/>
<path d="M190.485 466.019H161.217V464.851H163.377C166.39 464.851 167.505 463.934 167.505 460.804V433.632C167.505 430.382 166.458 429.032 162.329 429.032H161.426V427.867H180.746V429.032H178.325C174.065 429.032 172.953 429.464 172.953 433.266V461.54C172.953 463.195 173.673 463.809 175.571 463.809H185.197C189.061 463.809 190.241 462.398 194.359 457.06H195.54L190.485 466.019Z" fill="#C5C8CF"/>
<path d="M205.349 466.997L191.139 433.813C189.501 429.95 188.713 429.03 184.718 429.03V427.865H202.726V429.03C196.705 429.153 195.263 430.44 196.506 433.264L208.287 460.737L218.635 435.408C219.229 434.207 219.605 432.922 219.748 431.606C219.748 429.766 218.112 429.03 213.656 429.03V427.865H228.84V429.03C225.436 429.03 223.664 430.502 222.093 434.304L208.601 466.997H205.349Z" fill="#C5C8CF"/>
<path d="M235.154 449.091L231.353 458.719C230.756 459.955 230.317 461.252 230.044 462.585C230.044 464.24 231.745 464.851 235.348 464.851H236.395V466.019H221.269V464.851C225.523 464.792 226.243 464.115 228.337 458.782L240.259 428.297L239.67 426.947H245.366L259.055 460.99C259.304 462.24 260.07 463.347 261.186 464.071C262.302 464.794 263.677 465.076 265.013 464.854V466.021H247.005V464.854H248.707C252.442 464.854 253.814 464.488 253.814 462.771C253.75 461.896 253.506 461.042 253.094 460.254L248.707 449.093L235.154 449.091ZM241.832 432.099L236.266 446.39H247.597L241.832 432.099Z" fill="#C5C8CF"/>
<path d="M270.655 434C270.655 430.014 269.542 429.032 265.681 429.032H264.372V427.867C266.794 427.742 270.003 427.622 273.605 427.499C277.208 427.377 281.197 427.315 284.6 427.315C301.879 427.315 309.552 435.533 309.552 445.651C309.552 454.914 301.889 466.011 285.32 466.011H264.377V464.844H265.49C269.024 464.844 270.66 463.926 270.66 460.367L270.655 434ZM276.092 461.473C276.092 463.988 276.289 464.846 281.464 464.846C290.237 464.846 293.907 463.681 297.957 459.879C301.533 456.291 303.481 451.541 303.392 446.633C303.573 441.762 301.691 437.021 298.156 433.445C295.143 430.627 290.493 428.478 281.325 428.478C278.64 428.478 276.875 428.662 276.09 428.723L276.092 461.473Z" fill="#C5C8CF"/>
<path d="M336.094 467C323.267 467 312.452 459.273 312.452 447.8C312.452 435.597 322.471 426.95 336.421 426.95C348.796 426.95 359.409 434.861 359.409 445.902C359.408 448.736 358.798 451.54 357.616 454.149C356.434 456.758 354.704 459.116 352.528 461.085C350.353 463.054 347.776 464.592 344.953 465.608C342.13 466.624 339.117 467.098 336.094 467V467ZM334.723 428.488C323.204 428.488 318.612 438.545 318.612 445.904C318.612 457.374 326.929 465.472 337.461 465.472C348.137 465.472 353.244 456.641 353.244 447.928C353.244 436.507 345.527 428.48 334.72 428.48L334.723 428.488Z" fill="#C5C8CF"/>
<path d="M370.687 460.252C370.687 463.931 372.258 464.851 375.923 464.851H377.428V466.007H358.896V464.839H360.008C363.872 464.839 365.244 463.858 365.244 459.749V433.941C365.244 430.139 364.129 429.035 360.333 429.035H358.891V427.87C360.461 427.87 364.459 427.624 367.145 427.502C369.831 427.379 371.14 427.318 375.394 427.318C387.509 427.318 392.947 431.978 392.947 438.236C392.881 440.564 391.988 442.805 390.41 444.604C388.832 446.404 386.659 447.659 384.234 448.171C386.867 450.144 389.361 452.274 391.701 454.549L396.876 459.393C400.18 462.92 404.792 465.137 409.777 465.592V466.693C398.316 467.184 395.379 464.851 389.538 459.393L385.216 455.346C383.153 453.334 380.896 451.506 378.472 449.885C376.836 449.947 375.786 450.008 374.022 450.008C372.582 450.008 371.734 449.949 370.684 449.885L370.687 460.252ZM370.687 448.723C372.036 448.855 373.394 448.896 374.75 448.845C382.017 448.845 386.792 445.963 386.792 438.604C386.792 432.901 384.043 428.483 373.964 428.483C372.871 428.461 371.777 428.503 370.689 428.608L370.687 448.723Z" fill="#C5C8CF"/>
<path d="M205.226 0.00476074L210.038 9.13483L220.795 10.6066L213.012 17.7203L214.844 27.7556L205.224 23.0188L195.603 27.7237L197.435 17.6884L189.652 10.5747L200.409 9.10294L205.226 0.00476074Z" fill="#C5C8CF"/>
<path d="M275.943 16.9135L280.755 26.0435L291.512 27.5153L283.729 34.629L285.562 44.6643L275.941 39.9275L266.32 44.6545L268.153 34.6192L260.37 27.5055L271.127 26.0337L275.943 16.9135Z" fill="#C5C8CF"/>
<path d="M330.17 58.0381L334.982 67.1682L345.739 68.64L337.956 75.7537L339.788 85.7889L330.167 81.0522L320.547 85.7889L322.379 75.7537L314.596 68.64L325.353 67.1682L330.17 58.0381Z" fill="#C5C8CF"/>
<path d="M361.145 116.915L365.957 126.045L376.714 127.517L368.931 134.631L370.763 144.666L361.142 139.929L351.522 144.666L353.354 134.631L345.571 127.517L356.328 126.045L361.145 116.915Z" fill="#C5C8CF"/>
<path d="M362.334 185.248L367.145 194.378L377.902 195.85L370.119 202.964L371.952 212.999L362.331 208.262L352.71 212.999L354.543 202.964L346.76 195.85L357.517 194.378L362.334 185.248Z" fill="#C5C8CF"/>
<path d="M330.233 244.4L335.045 253.53L345.802 255.002L338.019 262.116L339.851 272.151L330.23 267.414L320.61 272.151L322.442 262.116L314.659 255.002L325.416 253.53L330.233 244.4Z" fill="#C5C8CF"/>
<path d="M276.284 285.559L281.095 294.689L291.852 296.161L284.069 303.274L285.902 313.31L276.281 308.573L266.66 313.31L268.493 303.274L260.71 296.161L271.467 294.689L276.284 285.559Z" fill="#C5C8CF"/>
<path d="M205.2 300.007L210.012 309.137L220.769 310.609L212.986 317.723L214.818 327.758L205.198 323.021L195.577 327.758L197.409 317.723L189.626 310.609L200.383 309.137L205.2 300.007Z" fill="#C5C8CF"/>
<path d="M135.687 285.598L140.499 294.728L151.256 296.2L143.473 303.314L145.306 313.349L135.687 308.593L126.067 313.329L127.899 303.294L120.116 296.18L130.873 294.709L135.687 285.598Z" fill="#C5C8CF"/>
<path d="M81.7121 244.474L86.5238 253.604L97.2807 255.076L89.4977 262.189L91.3302 272.224L81.7095 267.488L72.0888 272.224L73.9213 262.189L66.1436 255.061L76.9004 253.589L81.7121 244.474Z" fill="#C5C8CF"/>
<path d="M49.5723 185.692L54.384 194.822L65.1409 196.294L57.3579 203.408L59.1904 213.443L49.5697 208.706L39.949 213.411L41.7815 203.376L33.9985 196.262L44.7554 194.79L49.5723 185.692Z" fill="#C5C8CF"/>
<path d="M49.5723 116.915L54.384 126.045L65.1409 127.517L57.3579 134.631L59.1904 144.666L49.5697 139.929L39.949 144.666L41.7815 134.631L33.9985 127.517L44.7554 126.045L49.5723 116.915Z" fill="#C5C8CF"/>
<path d="M80.081 58.1093L84.8796 67.2393L95.6365 68.7111L87.8535 75.8248L89.686 85.86L80.0653 81.1233L70.4446 85.86L72.2771 75.8248L64.4941 68.7111L75.251 67.2393L80.081 58.1093Z" fill="#C5C8CF"/>
<path d="M135.598 16.943L140.41 26.0731L151.167 27.5449L143.384 34.6586L145.216 44.6938L135.596 39.9571L125.972 44.6889L127.805 34.6537L120.022 27.54L130.779 26.0682L135.598 16.943Z" fill="#C5C8CF"/>
<path d="M287.671 187.571C287.62 187.559 287.569 187.549 287.517 187.542C287.163 187.542 286.823 187.674 286.573 187.908C286.322 188.143 286.182 188.461 286.182 188.793C286.182 189.125 286.322 189.443 286.573 189.677C286.823 189.912 287.163 190.044 287.517 190.044C287.569 190.037 287.62 190.027 287.671 190.014C287.725 190.028 287.779 190.037 287.834 190.044C288.188 190.044 288.527 189.912 288.778 189.677C289.028 189.443 289.169 189.125 289.169 188.793C289.169 188.461 289.028 188.143 288.778 187.908C288.527 187.674 288.188 187.542 287.834 187.542C287.779 187.548 287.725 187.558 287.671 187.571V187.571Z" fill="#C5C8CF"/>
<path d="M302.507 170.02C301.354 170.202 300.25 170.589 299.253 171.161C298.689 171.528 298.048 171.779 297.373 171.897C297.765 171.151 297.931 170.318 297.855 169.49C297.625 167.201 297.625 163.451 297.625 163.451C297.625 163.451 296.81 165.735 295.648 166.279C294.431 166.824 292.224 167.587 291.816 168.35C291.407 169.112 289.784 169.11 289.145 171.394C288.995 172.382 288.661 173.339 288.158 174.22C288.005 174.486 287.834 174.744 287.648 174.992C288.44 171.702 288.886 168.346 288.98 164.974C288.98 164.442 288.962 163.937 288.954 163.417C289.447 163.023 289.914 162.602 290.352 162.156C290.876 161.363 297.096 159.364 297.965 157.789C298.837 156.266 299.3 155.177 299.708 154.524C300.326 153.184 300.661 151.745 300.695 150.286C300.633 148.331 300.4 146.384 299.999 144.465C299.028 144.919 298.16 145.547 297.444 146.312C297.253 146.566 297.02 146.789 296.753 146.974C296.764 146.417 296.665 145.864 296.462 145.34C295.591 143.329 294.255 140.665 294.255 140.665C294.255 140.665 293.096 142.353 292.454 143.383C291.407 145.345 290.36 145.505 290.187 146.268C290.072 147.082 288.794 147.573 288.331 149.15C288.202 149.565 288.095 149.986 288.012 150.411C287.551 147.045 286.965 143.984 286.281 141.227C286.58 140.341 286.917 138.416 287.755 137.792C288.285 137.301 288.686 136.702 288.928 136.041C289.17 135.38 289.245 134.676 289.148 133.983C289.113 132.77 288.919 131.566 288.572 130.397C288.394 129.469 285.318 125.491 285.551 124.36C285.551 124.36 284.038 127.571 283.457 128.832C281.928 127.413 280.212 126.185 278.349 125.177C277.588 123.935 276.803 122.689 275.993 121.438C276.032 121.07 276.116 120.29 276.255 119.456C276.644 118.166 276.723 116.81 276.485 115.487C276.079 114.563 275.265 113.8 274.862 112.659C274.625 111.587 274.058 110.604 273.231 109.831C272.244 108.849 270.794 107.547 270.794 107.547C270.794 107.547 270.399 109.23 270.027 110.591C269.698 110.432 269.352 110.306 268.995 110.213C268.757 110.125 268.244 109.877 267.686 109.593C266.99 108.702 266.307 107.858 265.671 107.113C265.856 107.004 266.009 106.852 266.114 106.672C266.219 106.492 266.274 106.29 266.273 106.085C266.283 105.796 266.188 105.512 266.005 105.279C265.822 105.046 265.561 104.877 265.263 104.8C264.966 104.723 264.649 104.742 264.364 104.854C264.079 104.966 263.843 105.164 263.693 105.417C263.543 105.67 263.488 105.963 263.537 106.249C263.586 106.534 263.736 106.796 263.963 106.992C264.19 107.189 264.481 107.308 264.788 107.33C265.096 107.353 265.403 107.278 265.66 107.118C265.841 107.385 266.375 108.16 267.158 109.325C266.506 108.992 265.872 108.651 265.587 108.477C265.063 108.15 264.778 111.884 265.987 113.952C265.794 113.905 265.6 113.854 265.417 113.812C263.902 113.45 262.334 113.321 260.775 113.432C261.356 113.432 262.807 114.904 262.98 115.659C263.488 116.802 264.335 117.783 265.422 118.487C266.522 119.07 267.536 119.783 268.44 120.609C270.019 121.363 271.793 121.684 273.558 121.536C274.09 121.845 274.712 121.989 275.336 121.949C276.085 123.158 276.833 124.384 277.561 125.611C277.253 126.672 277.094 127.766 277.09 128.866C276.1 128.702 272.674 127.941 272.674 127.941C272.871 129.625 273.474 131.246 274.435 132.68C274.239 132.851 274.106 133.076 274.056 133.323C273.988 133.724 274.091 134.135 274.341 134.466C274.806 135.13 275.471 135.648 276.252 135.955L259.655 146.896C260.449 133.511 259.905 120.086 258.029 106.796C260.042 106.083 259.498 105.234 259.498 105.234L258.712 103.392C258.915 103.482 259.135 103.531 259.359 103.536C259.536 103.54 259.712 103.509 259.875 103.445C260.038 103.381 260.185 103.286 260.307 103.166C260.541 102.884 260.649 102.528 260.607 102.173C260.566 101.818 260.378 101.492 260.084 101.265C259.717 100.908 259.283 100.618 258.804 100.409L261.16 100.085L262.516 94.7251L256.948 96.4937L256.828 98.7309C256.567 98.3113 256.226 97.9404 255.822 97.6368C255.698 97.4963 255.544 97.3822 255.369 97.3023C255.194 97.2224 255.003 97.1785 254.808 97.1735C254.613 97.1686 254.42 97.2027 254.241 97.2736C254.061 97.3445 253.9 97.4506 253.768 97.5846C253.636 97.7187 253.537 97.8777 253.476 98.0509C253.415 98.224 253.394 98.4075 253.415 98.5888C253.436 98.7701 253.498 98.9451 253.597 99.102C253.696 99.259 253.83 99.3942 253.99 99.4987C254.567 99.9995 255.275 100.348 256.042 100.509C256.061 100.559 256.087 100.607 256.118 100.652L228.274 129.376L209.789 100.431C210.928 93.4152 206.91 82.7692 206.747 82.3399C206.997 81.3978 207.106 80.4278 207.072 79.4576C207.485 79.3405 207.861 79.1299 208.167 78.8446C208.473 78.5593 208.699 78.208 208.826 77.8215L208.852 77.7896V77.7454V77.7086C208.185 76.9279 207.473 76.1819 206.719 75.474C207.048 75.5421 207.384 75.5807 207.721 75.5892H207.847C208.232 75.6109 208.612 75.4899 208.903 75.2523C209.194 75.0147 209.374 74.6794 209.405 74.3186C209.376 73.9631 209.201 73.632 208.916 73.3959C208.631 73.1599 208.258 73.0377 207.878 73.0553V73.0553C207.348 73.0219 206.815 73.081 206.308 73.2295L207.823 71.4976L204.972 66.6775L202.132 71.5025L203.658 73.2344C203.162 73.0896 202.643 73.0306 202.124 73.0602C201.685 73.0548 201.261 73.2116 200.944 73.4968C200.705 73.7163 200.57 74.0154 200.567 74.3284C200.568 74.4833 200.602 74.6365 200.667 74.7789C200.732 74.9213 200.827 75.0501 200.946 75.1575C201.257 75.4386 201.674 75.5945 202.106 75.5917H202.237C202.509 75.5826 202.78 75.5556 203.048 75.5108C202.577 75.9229 201.972 76.5606 201.556 77.0169C201.397 77.1423 201.262 77.2915 201.156 77.4584L201.056 77.5688C201.073 77.6319 201.093 77.6941 201.116 77.7553C201.116 77.7945 201.116 77.8362 201.116 77.873C201.31 78.2538 201.602 78.5828 201.967 78.8297C199.847 82.5092 194.637 93.1993 197.648 104.341L181.679 129.381L153.746 100.531C154.579 100.4 155.352 100.042 155.968 99.5011C156.296 99.2276 156.496 98.8445 156.526 98.4341C156.537 98.2795 156.515 98.1243 156.461 97.978C156.406 97.8317 156.321 97.6971 156.21 97.5825C156.098 97.4679 155.964 97.3756 155.813 97.3112C155.663 97.2467 155.5 97.2115 155.335 97.2076C154.907 97.2025 154.492 97.3457 154.17 97.6098C153.756 97.9174 153.408 98.2952 153.144 98.7235L153.023 96.4839L147.455 94.7153L148.811 100.075L151.183 100.399C150.711 100.601 150.283 100.884 149.921 101.233C149.592 101.506 149.391 101.889 149.361 102.3C149.342 102.613 149.456 102.921 149.677 103.156C149.79 103.27 149.925 103.361 150.076 103.426C150.226 103.49 150.389 103.526 150.554 103.531H150.62C150.845 103.526 151.066 103.478 151.269 103.389L150.484 105.226C150.484 105.226 149.942 106.075 151.955 106.789C150.076 120.078 149.531 133.504 150.329 146.888L133.732 135.945C134.51 135.644 135.174 135.132 135.638 134.474C135.866 134.174 135.976 133.81 135.949 133.443C135.92 133.164 135.786 132.903 135.57 132.707C136.549 131.27 137.159 129.639 137.352 127.944C137.352 127.944 133.928 128.704 132.939 128.868C132.934 127.769 132.776 126.674 132.468 125.613C133.198 124.387 133.944 123.16 134.693 121.951C135.317 121.991 135.938 121.847 136.47 121.539C138.235 121.687 140.009 121.365 141.588 120.612C142.492 119.785 143.507 119.072 144.607 118.49C145.692 117.786 146.539 116.804 147.044 115.661C147.219 114.901 148.67 113.434 149.251 113.434C147.691 113.324 146.122 113.452 144.607 113.814C144.426 113.856 144.23 113.908 144.039 113.954C145.245 111.886 144.957 108.153 144.434 108.479C144.138 108.653 143.505 108.997 142.863 109.328C143.648 108.165 144.172 107.39 144.361 107.12C144.574 107.256 144.825 107.331 145.083 107.336C145.347 107.336 145.605 107.262 145.824 107.124C146.043 106.986 146.214 106.791 146.315 106.562C146.415 106.333 146.441 106.082 146.39 105.839C146.338 105.597 146.21 105.374 146.024 105.199C145.837 105.025 145.599 104.906 145.34 104.858C145.081 104.81 144.813 104.835 144.569 104.929C144.325 105.024 144.117 105.185 143.97 105.39C143.824 105.596 143.745 105.838 143.745 106.085C143.746 106.29 143.802 106.491 143.908 106.671C144.014 106.851 144.166 107.002 144.35 107.113C143.714 107.849 143.041 108.702 142.334 109.593C141.769 109.877 141.256 110.125 141.025 110.213C140.669 110.306 140.323 110.432 139.994 110.591C139.622 109.227 139.224 107.547 139.224 107.547C139.224 107.547 137.774 108.854 136.79 109.831C135.962 110.604 135.395 111.587 135.159 112.659C134.753 113.8 133.941 114.563 133.536 115.487C133.298 116.81 133.377 118.166 133.766 119.456C133.892 120.29 133.978 121.07 134.028 121.438C133.225 122.686 132.44 123.932 131.672 125.177C129.809 126.185 128.092 127.413 126.564 128.832C125.988 127.571 124.47 124.36 124.47 124.36C124.7 125.5 121.622 129.469 121.449 130.397C121.101 131.566 120.908 132.77 120.873 133.983C120.776 134.676 120.851 135.38 121.093 136.041C121.334 136.702 121.736 137.301 122.266 137.792C123.103 138.428 123.441 140.353 123.739 141.227C123.064 143.984 122.467 147.043 122.009 150.411C121.926 149.986 121.819 149.565 121.69 149.15C121.226 147.573 119.949 147.082 119.831 146.268C119.656 145.505 118.614 145.343 117.567 143.383C116.907 142.348 115.747 140.66 115.747 140.66C115.747 140.66 114.409 143.324 113.54 145.335C113.337 145.859 113.239 146.412 113.25 146.969C112.983 146.784 112.75 146.561 112.559 146.307C111.842 145.542 110.974 144.915 110.003 144.46C109.603 146.379 109.37 148.326 109.307 150.281C109.342 151.74 109.677 153.179 110.294 154.519C110.702 155.172 111.166 156.261 112.038 157.784C112.907 159.359 119.129 161.358 119.648 162.151C120.087 162.597 120.555 163.018 121.048 163.412C121.048 163.932 121.022 164.437 121.022 164.969C121.117 168.341 121.563 171.697 122.355 174.987C122.163 174.741 121.988 174.483 121.831 174.215C121.329 173.334 120.995 172.377 120.844 171.389C120.208 169.105 118.577 169.105 118.171 168.345C117.765 167.584 115.553 166.816 114.341 166.274C113.182 165.73 112.365 163.446 112.365 163.446C112.365 163.446 112.365 167.199 112.134 169.485C112.059 170.313 112.224 171.145 112.613 171.892C111.939 171.773 111.3 171.523 110.736 171.156C109.74 170.584 108.635 170.197 107.482 170.015C107.753 172.049 108.159 174.066 108.7 176.052C109.214 177.518 110.046 178.869 111.142 180.021C111.723 180.617 112.538 181.544 113.93 182.849C115.381 184.211 119.025 184.48 123.048 185.731C124.209 186.077 125.209 186.783 125.884 187.733C126.03 188.224 126.145 188.643 126.24 188.96C126.69 190.608 127.287 192.62 127.983 194.788C126.564 193.467 124.648 192.72 122.648 192.708C121.252 192.492 115.797 191.184 115.797 191.184C117.243 192.823 118.242 194.766 118.708 196.846C116.612 196.498 114.466 196.498 112.37 196.846C114.557 198.389 116.391 200.329 117.763 202.549C118.575 204.594 119.732 206.504 121.19 208.206C121.826 208.586 123.627 210.659 124.855 211.795C126.082 212.93 130.892 212.339 132.517 212.339C133.794 212.557 135.036 212.929 136.211 213.445C137.747 215.26 139.462 216.935 141.332 218.45C139.673 217.819 138.161 216.891 136.881 215.717C136.096 214.714 136.996 219.065 137.9 220.473C136.66 220.443 135.449 220.117 134.381 219.526C133.046 218.545 134.206 222.961 135.659 224.202C138.784 226.809 138.497 227.224 138.994 227.391C136.363 227.881 132.711 228.725 131.588 228.107C130.135 227.344 133.214 230.008 135.072 230.663C137.743 231.588 137.397 233.222 140.308 234.097C142.88 235.147 145.639 235.738 148.442 235.841C149.878 235.379 151.354 235.032 152.853 234.804C154.612 234.605 157.602 232.41 161.002 232.007C164.193 233.856 167.481 235.552 170.854 237.09C170.995 237.156 171.183 237.235 171.377 237.316C170.992 237.345 170.609 237.396 170.23 237.468C167.818 238.124 165.302 238.382 162.796 238.228C161.694 237.689 164.055 240.738 165.547 241.888C163.314 242.349 161.022 242.51 158.741 242.364C157.115 242.038 161.995 246.443 163.908 246.931L164.133 246.99C162.946 247.42 161.698 247.687 160.429 247.783C158.746 247.672 165.772 251.97 167.691 251.707C173.846 250.893 179.655 252.851 182.498 251.764C185.053 250.837 186.563 250.187 187.841 249.801C189.119 249.365 189.818 248.278 190.629 247.734C191.412 246.788 192.417 246.024 193.566 245.501C193.675 245.547 193.793 245.569 193.912 245.568C196.072 245.686 198.238 245.686 200.399 245.568C199.44 245.937 198.546 246.44 197.747 247.059C195.529 247.661 193.345 248.366 191.202 249.173C187.477 251.462 184.029 254.125 180.919 257.114C180.919 257.114 186.155 256.734 186.959 256.734C187.762 256.734 189.577 253.358 190.383 252.762C190.619 252.608 191.954 251.97 193.899 251.116C192.929 252.675 192.561 254.499 192.858 256.282C193.156 258.064 194.099 259.696 195.53 260.904C194.137 259.383 195.705 256.716 195.705 256.716L198.553 258.402C194.98 252.674 200.506 248.85 202.339 247.783C202.53 247.714 202.718 247.645 202.912 247.581C203.168 247.923 203.504 248.204 203.895 248.404C204.286 248.603 204.721 248.714 205.166 248.729C205.592 248.716 206.008 248.613 206.385 248.427C206.762 248.242 207.09 247.98 207.344 247.66C207.711 247.788 208.075 247.922 208.436 248.052C210.567 249.402 215.101 253.084 211.784 258.404L214.627 256.719C214.627 256.719 216.198 259.383 214.803 260.906C216.206 259.725 217.143 258.135 217.462 256.393C217.78 254.651 217.462 252.859 216.559 251.308C218.274 252.066 219.439 252.625 219.648 252.767C220.46 253.363 222.266 256.739 223.072 256.739C223.879 256.739 229.112 257.119 229.112 257.119C226.002 254.13 222.554 251.467 218.829 249.178C216.845 248.424 214.821 247.765 212.766 247.204C211.922 246.523 210.969 245.973 209.941 245.572C212.102 245.691 214.268 245.691 216.428 245.572C216.469 245.573 216.51 245.568 216.549 245.555C217.64 246.107 218.61 246.848 219.407 247.738C220.219 248.283 220.918 249.37 222.195 249.806C223.47 250.187 224.984 250.837 227.539 251.769C230.382 252.855 236.191 250.898 242.345 251.712C244.262 251.985 251.291 247.689 249.607 247.788C248.338 247.692 247.091 247.425 245.903 246.995L246.128 246.936C248.044 246.446 252.935 242.043 251.296 242.369C249.014 242.515 246.723 242.354 244.489 241.893C245.982 240.742 248.346 237.691 247.241 238.233C244.734 238.387 242.218 238.13 239.806 237.473C239.427 237.401 239.044 237.35 238.659 237.321C238.85 237.24 239.036 237.161 239.183 237.095C242.557 235.558 245.846 233.861 249.037 232.012C252.44 232.415 255.427 234.61 257.186 234.809C258.685 235.037 260.161 235.384 261.597 235.846C264.401 235.743 267.159 235.152 269.731 234.102C272.632 233.234 272.286 231.6 274.967 230.668C276.826 230.016 279.904 227.349 278.451 228.112C277.339 228.73 273.676 227.891 271.04 227.396C271.54 227.217 271.252 226.805 274.378 224.207C275.831 222.956 276.996 218.55 275.655 219.531C274.587 220.122 273.376 220.447 272.137 220.478C273.04 219.07 273.941 214.719 273.155 215.722C271.876 216.896 270.364 217.824 268.705 218.455C270.576 216.941 272.292 215.265 273.828 213.45C275.003 212.934 276.245 212.562 277.522 212.344C279.148 212.344 283.967 212.945 285.184 211.8C286.402 210.654 288.205 208.591 288.849 208.211C290.306 206.508 291.463 204.599 292.276 202.554C293.649 200.33 295.486 198.388 297.677 196.844C295.581 196.496 293.435 196.496 291.339 196.844C291.793 194.77 292.778 192.83 294.208 191.192C294.208 191.192 288.753 192.499 287.357 192.715C285.357 192.727 283.441 193.474 282.022 194.795C282.718 192.627 283.313 190.625 283.766 188.967C283.847 188.658 283.975 188.231 284.122 187.74C284.796 186.79 285.796 186.084 286.957 185.739C290.98 184.488 294.625 184.218 296.075 182.857C297.468 181.552 298.282 180.624 298.863 180.028C299.958 178.876 300.787 177.525 301.3 176.059C301.838 174.072 302.242 172.055 302.507 170.02V170.02ZM287.993 166.385C287.779 168.977 287.361 171.55 286.742 174.085C286.661 173.012 286.349 171.966 285.826 171.009C285.245 169.868 284.433 169.868 284.027 168.72C283.622 167.572 282.226 167.199 281.409 166.267C280.666 165.508 279.848 164.816 278.967 164.199C278.385 166.551 278.248 168.98 278.561 171.377C278.711 171.74 278.811 172.12 278.857 172.507C278.26 172.294 277.742 172.13 277.742 172.13C276.695 174.357 277.917 176.641 278.326 178.709C278.694 179.639 279.16 180.534 279.718 181.377C280.124 182.138 279.954 182.849 280.354 183.445C280.734 183.936 281.616 184.017 282.53 184.802C282.545 185.806 282.71 186.803 283.019 187.765C282.234 190.198 281.388 192.671 280.472 195.149C280.383 194.215 280.049 193.317 279.501 192.534C278.704 191.631 278.094 190.597 277.703 189.485C276.888 187.417 275.26 187.417 275.03 185.351C274.684 186.841 274.433 188.348 274.276 189.865C274.142 191.197 274.26 192.54 274.624 193.834C274.675 194.693 274.552 195.554 274.263 196.37C274.266 195.229 273.993 194.103 273.464 193.076C273.069 192.376 272.926 191.575 273.056 190.792C272.185 192.182 271.144 193.472 269.954 194.636L269.2 193.456C279.794 176.099 277.315 146.4 276.922 142.331C278.634 141.992 278.336 141.165 278.336 141.165L278.004 139.223C278.16 139.334 278.338 139.417 278.527 139.468C278.648 139.499 278.773 139.515 278.899 139.514C279.15 139.516 279.395 139.444 279.6 139.308C279.753 139.206 279.88 139.073 279.97 138.919C280.061 138.765 280.114 138.594 280.124 138.418C280.126 138.396 280.126 138.374 280.124 138.352C280.703 139.044 281.443 139.603 282.286 139.988C283.739 140.368 284.957 140.969 285.129 141.509C286.046 145.064 286.729 148.669 287.177 152.302L287.161 152.285C285.538 150.597 285.129 147.379 281.53 145.647C281.624 146.406 281.624 147.172 281.53 147.931C281.301 148.906 281.187 149.901 281.19 150.899C280.103 150.226 279.165 149.363 278.428 148.358C278.104 150.778 278.383 153.235 279.242 155.537C280.695 157.99 280.695 159.291 282.26 159.833C283.158 160.136 283.985 160.597 284.697 161.192C285.415 161.689 286.255 162.008 287.14 162.119C287.245 162.13 287.346 162.162 287.436 162.213C287.526 162.264 287.604 162.332 287.664 162.413C287.749 162.801 287.857 163.185 287.988 163.561C288.02 164.587 288.017 165.531 287.996 166.385H287.993ZM147.225 145.929L157.958 153.011C157.802 156.779 158.318 160.544 159.487 164.152L150.568 178.135C149.099 175.127 145.345 165.335 147.225 145.929ZM130.669 137.716C130.869 137.392 131.137 137.109 131.456 136.884C131.776 136.658 132.14 136.495 132.528 136.404C132.576 137.164 132.326 137.914 131.826 138.514C131.69 138.703 131.487 138.842 131.253 138.906C131.163 138.934 131.067 138.942 130.973 138.929C130.879 138.917 130.79 138.885 130.711 138.835C130.634 138.783 130.571 138.715 130.526 138.637C130.481 138.559 130.454 138.472 130.449 138.384C130.436 138.144 130.514 137.907 130.669 137.716V137.716ZM165.932 114.43L174.477 123.261C174.293 125.694 173.935 133.284 176.168 138.06L168.38 150.227C166.529 146.699 162.683 136.269 165.932 114.43ZM199.255 108.727C203.038 108.107 206.906 108.098 210.693 108.7L211.91 110.608C207.337 109.667 202.599 109.685 198.035 110.66L199.255 108.727ZM200.229 107.204L204.983 99.7587L209.716 107.172C206.566 106.78 203.374 106.79 200.226 107.201L200.229 107.204ZM196.962 112.32C202.195 110.956 207.724 110.937 212.967 112.267L214.276 114.32C208.234 112.365 201.662 112.391 195.637 114.393L196.962 112.32ZM194.362 116.375C197.698 115.013 201.296 114.301 204.935 114.284C208.575 114.267 212.18 114.944 215.53 116.275L248.369 167.687H236.327C235.774 167.372 235.244 167.023 234.74 166.642C234.563 166.5 234.376 166.369 234.18 166.25C233.788 166.006 233.349 165.838 232.888 165.753C232.427 165.669 231.952 165.671 231.492 165.759C231 165.855 230.525 166.015 230.081 166.235C229.635 166.454 229.211 166.709 228.814 166.998C228.775 167.036 228.728 167.066 228.675 167.084C228.469 167.014 228.268 166.932 228.073 166.838C227.012 166.353 226.019 165.749 225.114 165.038C224.821 164.806 224.503 164.604 224.164 164.435C223.61 164.164 222.993 164.024 222.368 164.025C221.935 164.028 221.505 164.09 221.091 164.209C220.5 164.381 219.937 164.628 219.418 164.945C219.068 165.15 218.732 165.375 218.41 165.617C218.371 165.646 218.339 165.686 218.279 165.688L218.206 165.649C217.598 165.285 216.952 164.978 216.279 164.734C215.674 164.505 215.093 164.226 214.541 163.9C213.752 163.454 213.002 162.951 212.297 162.396C212.046 162.197 211.776 162.02 211.491 161.866C210.905 161.545 210.249 161.351 209.572 161.3C209.109 161.265 208.643 161.295 208.19 161.388C207.578 161.514 206.987 161.718 206.433 161.994C206.136 162.152 205.849 162.326 205.572 162.514V144.715C207.585 144.6 209.13 143.945 209.13 143.152C209.13 142.36 207.679 137.003 205.76 135.705C205.181 135.318 204.492 135.103 203.781 135.086C203.07 135.069 202.37 135.251 201.771 135.609C201.771 135.609 199.276 136.963 200.553 138.869C200.553 138.869 200.815 139.446 201.915 139.036C202.143 138.949 202.345 138.809 202.5 138.629C202.655 138.45 202.759 138.236 202.802 138.008L202.773 138.469C202.773 139.127 201.8 139.492 201.752 139.512C201.275 140.688 200.936 141.91 200.742 143.155C200.742 143.954 202.313 144.607 204.328 144.72V162.789L204.153 162.686C203.316 162.214 202.52 161.682 201.771 161.096C201.497 160.879 201.204 160.685 200.894 160.517C200.303 160.194 199.647 159.992 198.967 159.923C198.426 159.873 197.88 159.902 197.349 160.012C196.71 160.145 196.094 160.359 195.517 160.647C194.91 160.949 194.333 161.301 193.791 161.697C193.751 161.735 193.702 161.764 193.647 161.78L193.511 161.704C193.25 161.567 193.014 161.427 192.76 161.3C192.408 161.111 192.043 160.948 191.666 160.809C191.172 160.635 190.69 160.433 190.223 160.203C188.879 159.537 187.612 158.742 186.443 157.831C186.333 157.745 186.221 157.662 186.108 157.586C185.216 156.931 184.142 156.533 183.014 156.438C182.975 156.432 182.936 156.423 182.898 156.411H182.273C182.224 156.422 182.176 156.431 182.126 156.438C181.392 156.498 180.671 156.663 179.99 156.928C179.207 157.232 178.463 157.617 177.773 158.076C176.987 158.594 176.246 159.168 175.555 159.793C174.664 160.6 173.83 161.461 173.058 162.369C172.302 163.248 171.599 164.165 170.95 165.116C170.919 165.164 170.884 165.209 170.846 165.251C170.369 165.798 169.866 166.32 169.335 166.819C169.011 167.128 168.655 167.395 168.317 167.69H161.615L194.362 116.375ZM241.589 150.227L233.811 138.048C236.039 133.276 235.683 125.684 235.497 123.256L244.039 114.425C247.275 136.245 243.44 146.68 241.589 150.227ZM277.441 136.409C277.833 136.503 278.2 136.67 278.522 136.9C278.844 137.129 279.114 137.417 279.315 137.746C279.458 137.932 279.529 138.159 279.514 138.389C279.509 138.478 279.483 138.564 279.437 138.643C279.392 138.721 279.329 138.789 279.252 138.842C279.174 138.892 279.084 138.924 278.99 138.936C278.896 138.948 278.8 138.939 278.71 138.911C278.471 138.844 278.265 138.701 278.127 138.506C277.633 137.908 277.389 137.161 277.438 136.407L277.441 136.409ZM259.396 178.11L250.474 164.143C251.636 160.539 252.15 156.78 251.995 153.018L262.728 145.936C264.61 165.293 260.88 175.083 259.39 178.103L259.396 178.11ZM144.23 194.942L152.607 181.826H254.286C254.246 181.799 254.205 181.774 254.162 181.753C253.987 181.659 253.812 181.579 253.639 181.483C253.038 181.136 252.46 180.755 251.909 180.342C250.908 179.606 249.961 178.814 249.029 178.005C247.688 176.827 246.39 175.61 245.123 174.364C244.293 173.547 243.468 172.723 242.67 171.877C242.321 171.509 241.954 171.154 241.57 170.812C240.887 170.199 240.143 169.648 239.348 169.166C238.997 168.959 238.631 168.775 238.254 168.614H248.961L265.778 194.942H144.23ZM161.031 168.624H167.241C166.045 169.604 164.792 170.521 163.487 171.369C163.369 171.445 163.246 171.519 163.123 171.585C162.426 171.983 161.753 172.416 161.107 172.883C160.06 173.633 159.036 174.443 158.044 175.274C157.052 176.106 156.102 176.957 155.165 177.825L161.031 168.624ZM204.75 165.055C204.986 165.156 205.221 165.254 205.465 165.34C205.738 165.44 206.005 165.556 206.263 165.688C206.985 166.055 207.673 166.48 208.318 166.956C209.389 167.74 210.379 168.617 211.276 169.574C212.655 171.029 214.07 172.452 215.52 173.842C216.113 174.416 216.71 174.988 217.311 175.559C218.839 176.984 220.4 178.375 222.023 179.7L222.326 179.945L222.387 180.001V180.028H214.447C214.405 180.033 214.362 180.029 214.322 180.017C214.282 180.004 214.246 179.983 214.216 179.955L213.693 179.572C212.585 178.765 211.52 177.909 210.475 177.028C209.276 176.018 208.102 174.982 206.952 173.923C204.437 171.614 201.999 169.237 199.64 166.792C199.229 166.367 198.826 165.933 198.404 165.516C197.495 164.606 196.514 163.763 195.467 162.995C195.428 162.968 195.394 162.938 195.349 162.901L195.409 162.847C195.913 162.506 196.459 162.223 197.035 162.004C197.36 161.885 197.698 161.803 198.043 161.758C198.648 161.675 199.265 161.776 199.805 162.045C200.069 162.175 200.318 162.333 200.546 162.514C201.148 162.988 201.78 163.427 202.438 163.831C203.173 164.289 203.943 164.695 204.742 165.045L204.75 165.055ZM236.79 170.003C236.913 170.057 237.036 170.106 237.162 170.152C237.469 170.262 237.764 170.399 238.044 170.56C238.789 170.981 239.485 171.474 240.12 172.031C240.529 172.387 240.919 172.761 241.288 173.152C242.033 173.942 242.796 174.717 243.576 175.478C244.272 176.157 244.982 176.839 245.691 177.509C246.55 178.327 247.432 179.115 248.338 179.874C248.386 179.906 248.428 179.948 248.458 179.996L248.411 180.014H243.992C243.941 180.019 243.889 180.014 243.84 179.999C243.791 179.984 243.747 179.958 243.709 179.925C242.874 179.29 242.068 178.623 241.277 177.941C240.487 177.259 239.746 176.592 239 175.9C237.354 174.372 235.756 172.805 234.206 171.197C233.877 170.859 233.554 170.518 233.214 170.189C232.452 169.446 231.615 168.772 230.717 168.178L230.602 168.097C230.612 168.081 230.625 168.067 230.641 168.055C231.012 167.827 231.423 167.661 231.855 167.565C232.278 167.475 232.72 167.545 233.089 167.758C233.241 167.847 233.386 167.946 233.523 168.055C234.515 168.831 235.611 169.481 236.782 169.991L236.79 170.003ZM230.795 170.55C231.396 171.041 231.963 171.568 232.492 172.127C233.636 173.336 234.819 174.516 236.023 175.677C237.099 176.717 238.199 177.74 239.327 178.731C239.777 179.126 240.238 179.513 240.693 179.903L240.803 180.001C240.784 180.008 240.764 180.014 240.743 180.018H234.547C234.521 180.017 234.496 180.017 234.471 180.018C234.434 180.022 234.396 180.017 234.361 180.006C234.326 179.995 234.294 179.976 234.267 179.952C233.856 179.633 233.439 179.324 233.031 179C231.863 178.081 230.738 177.107 229.641 176.113C228.999 175.534 228.363 174.951 227.732 174.359C226.087 172.809 224.48 171.224 222.913 169.603C222.567 169.247 222.227 168.887 221.866 168.536C221.29 167.971 220.678 167.439 220.033 166.944L219.944 166.87L219.926 166.838L219.97 166.807C220.379 166.517 220.825 166.276 221.298 166.09C221.602 165.972 221.925 165.902 222.253 165.882C222.603 165.862 222.952 165.935 223.261 166.09C223.466 166.195 223.659 166.319 223.837 166.461C224.797 167.212 225.844 167.86 226.957 168.394C227.267 168.541 227.584 168.674 227.908 168.791C228.215 168.903 228.511 169.039 228.793 169.198C229.5 169.586 230.168 170.035 230.787 170.538L230.795 170.55ZM221.156 170.484C222.041 171.421 222.947 172.336 223.863 173.243C224.694 174.061 225.536 174.874 226.389 175.682C227.842 177.045 229.321 178.38 230.866 179.65C230.981 179.749 231.096 179.842 231.214 179.935L231.277 179.996L231.227 180.016H225.643C225.599 180.021 225.555 180.017 225.513 180.005C225.471 179.992 225.432 179.971 225.4 179.942C224.991 179.631 224.573 179.324 224.169 179.01C222.837 177.97 221.551 176.871 220.313 175.745C219.641 175.139 218.974 174.525 218.311 173.903C216.541 172.24 214.813 170.537 213.127 168.794C212.74 168.391 212.36 167.989 211.96 167.596C210.967 166.613 209.87 165.727 208.685 164.952C208.126 164.587 207.541 164.259 206.933 163.971L206.834 163.919C206.849 163.902 206.855 163.883 206.873 163.878C207.379 163.57 207.937 163.343 208.522 163.208C208.819 163.143 209.124 163.121 209.428 163.142C209.791 163.17 210.143 163.272 210.46 163.441C210.703 163.569 210.933 163.72 211.145 163.89C212.352 164.829 213.678 165.624 215.093 166.257C215.292 166.345 215.496 166.426 215.698 166.502C216.051 166.631 216.392 166.785 216.719 166.964C217.463 167.37 218.168 167.835 218.826 168.354C219.657 169.003 220.434 169.711 221.148 170.471L221.156 170.484ZM196.341 166.142C196.886 166.647 197.404 167.175 197.912 167.714C198.483 168.31 199.064 168.901 199.642 169.49C200.69 170.542 201.744 171.578 202.805 172.601C204.713 174.433 206.661 176.231 208.685 177.955C209.47 178.615 210.255 179.265 211.056 179.898L211.19 180.009C211.143 180.009 211.124 180.009 211.104 180.009H155.604C155.583 179.957 155.62 179.94 155.644 179.92C155.905 179.675 156.167 179.43 156.429 179.202C157.26 178.435 158.104 177.684 158.963 176.95C160.01 176.062 161.071 175.196 162.191 174.391C162.859 173.903 163.558 173.453 164.285 173.045C164.495 172.929 164.694 172.799 164.895 172.664C166.659 171.517 168.329 170.249 169.893 168.87C170.79 168.083 171.63 167.24 172.406 166.348C172.459 166.291 172.507 166.23 172.55 166.166C173.201 165.19 173.918 164.253 174.697 163.363C175.318 162.646 175.979 161.96 176.678 161.309C177.401 160.628 178.19 160.01 179.034 159.465C179.583 159.109 180.174 158.813 180.794 158.582C181.214 158.424 181.654 158.317 182.103 158.263C182.875 158.172 183.658 158.314 184.338 158.668C184.638 158.824 184.921 159.007 185.184 159.215C185.806 159.704 186.456 160.16 187.132 160.583C187.912 161.083 188.726 161.534 189.569 161.935C190.014 162.144 190.47 162.331 190.935 162.497C191.241 162.61 191.537 162.743 191.823 162.894C192.6 163.293 193.342 163.749 194.043 164.258C194.848 164.837 195.613 165.463 196.333 166.132L196.341 166.142ZM183.804 198.372C186.487 200.244 189.525 201.621 192.757 202.429C190.608 203.035 176.621 206.494 164.667 198.372H183.804ZM202.876 209.006C202.876 209.006 204.208 202.488 204.97 198.372C205.755 202.485 207.064 209.006 207.064 209.006C207.218 210.1 207.11 211.214 206.748 212.265C206.385 213.316 205.778 214.278 204.97 215.082C204.159 214.277 203.549 213.313 203.186 212.26C202.822 211.207 202.713 210.091 202.868 208.993L202.876 209.006ZM226.175 198.372H245.306C233.356 206.494 219.371 203.032 217.216 202.429C220.448 201.618 223.486 200.238 226.167 198.362L226.175 198.372ZM274.867 134.137C274.706 133.934 274.638 133.679 274.676 133.429C274.704 133.299 274.776 133.181 274.88 133.093C274.937 133.138 274.995 133.18 275.056 133.22C275.731 133.627 276.307 134.163 276.747 134.792C276.793 135.017 276.793 135.247 276.747 135.472C275.96 135.257 275.286 134.779 274.852 134.128L274.867 134.137ZM259.835 102.764C259.664 102.895 259.445 102.958 259.224 102.94C259.004 102.922 258.8 102.825 258.655 102.668C258.081 102.202 257.685 101.575 257.524 100.88C257.55 100.847 257.571 100.81 257.587 100.772C258.369 100.817 259.101 101.144 259.631 101.684C259.802 101.806 259.917 101.985 259.952 102.184C259.987 102.383 259.94 102.587 259.82 102.754L259.835 102.764ZM258.239 97.6123L260.396 96.9254L259.872 98.9982L258.155 99.2435L258.239 97.6123ZM254.236 98.0023C254.296 97.9429 254.37 97.8961 254.451 97.8648C254.532 97.8335 254.619 97.8186 254.707 97.8208C254.976 97.8299 255.232 97.9311 255.427 98.1053C256.009 98.5421 256.406 99.1586 256.547 99.8445C256.418 99.8365 256.289 99.8712 256.183 99.9426C255.532 99.8033 254.931 99.5064 254.44 99.0817C254.348 99.0231 254.269 98.9479 254.208 98.8606C254.147 98.7732 254.105 98.6754 254.084 98.5727C254.064 98.4701 254.065 98.3646 254.089 98.2625C254.112 98.1604 254.157 98.0636 254.22 97.9778L254.236 98.0023ZM207.637 73.6735C207.712 73.6691 207.788 73.6691 207.863 73.6735C207.973 73.6473 208.088 73.6451 208.199 73.6672C208.31 73.6893 208.414 73.7349 208.503 73.8007C208.592 73.8665 208.664 73.9505 208.713 74.0465C208.762 74.1424 208.787 74.2476 208.786 74.3539C208.784 74.4603 208.757 74.5649 208.706 74.6598C208.655 74.7547 208.581 74.8373 208.49 74.9012C208.399 74.9651 208.294 75.0086 208.183 75.0284C208.071 75.0482 207.956 75.0437 207.847 75.0152C207.042 75.0505 206.25 74.8108 205.619 74.3407C206.166 73.8749 206.886 73.6284 207.624 73.6538L207.637 73.6735ZM204.996 69.68L206.098 71.5467L204.999 72.8026L203.896 71.5492L204.996 69.68ZM202.145 75.03C201.876 75.0352 201.615 74.9409 201.42 74.7675C201.359 74.7162 201.309 74.6533 201.276 74.5829C201.242 74.5125 201.225 74.4362 201.225 74.3591C201.225 74.2819 201.242 74.2057 201.276 74.1353C201.309 74.0649 201.359 74.002 201.42 73.9506C201.522 73.8611 201.642 73.7916 201.772 73.7461C201.903 73.7006 202.042 73.6801 202.182 73.6857C202.579 73.6515 202.98 73.6927 203.36 73.8069C203.74 73.9211 204.092 74.106 204.394 74.3505C203.753 74.8242 202.947 75.0592 202.132 75.0103L202.145 75.03ZM204.501 87.4642C205.508 85.8866 206.263 84.1791 206.742 82.3963C207.472 86.4437 207.219 90.5932 206.001 94.5362L204.975 92.9222L201.606 98.2035C201.284 94.4166 202.302 90.6357 204.501 87.4446V87.4642ZM154.576 98.0857C154.671 97.9975 154.784 97.9284 154.909 97.8828C155.034 97.8373 155.167 97.8162 155.301 97.8208C155.466 97.8247 155.624 97.89 155.738 98.0023C155.792 98.0601 155.833 98.1275 155.858 98.2003C155.884 98.2732 155.894 98.3502 155.887 98.4267C155.865 98.6842 155.735 98.9231 155.526 99.0915C154.98 99.5987 154.267 99.9178 153.502 99.9966H153.392C153.44 99.6167 153.57 99.2499 153.773 98.9181C153.977 98.5863 154.25 98.2965 154.576 98.0661V98.0857ZM149.581 96.9304L151.733 97.6172L151.822 99.2435L150.104 98.9982L149.581 96.9304ZM150.581 102.952C150.499 102.952 150.418 102.936 150.343 102.905C150.267 102.874 150.2 102.829 150.143 102.773C150.035 102.655 149.982 102.502 149.994 102.347C150.006 102.217 150.044 102.091 150.108 101.976C150.172 101.86 150.26 101.758 150.366 101.674C150.882 101.156 151.582 100.833 152.335 100.764H152.484C152.355 101.515 151.938 102.197 151.311 102.68C151.215 102.768 151.1 102.836 150.974 102.879C150.849 102.923 150.715 102.941 150.581 102.933V102.952ZM135.101 134.14C134.67 134.779 134.004 135.25 133.229 135.462C133.188 135.253 133.188 135.038 133.229 134.829C133.678 134.182 134.266 133.63 134.957 133.21C135.01 133.175 135.061 133.138 135.109 133.097C135.222 133.202 135.291 133.34 135.305 133.487C135.32 133.721 135.248 133.951 135.101 134.14ZM121.993 163.576C122.125 163.199 122.233 162.816 122.318 162.428C122.378 162.347 122.455 162.278 122.546 162.227C122.636 162.177 122.737 162.145 122.842 162.134C123.726 162.023 124.566 161.704 125.284 161.206C125.996 160.611 126.823 160.15 127.721 159.847C129.292 159.303 129.292 157.995 130.74 155.552C131.598 153.25 131.876 150.792 131.551 148.372C130.816 149.379 129.879 150.242 128.792 150.914C128.793 149.916 128.679 148.92 128.452 147.945C128.356 147.187 128.356 146.42 128.452 145.662C124.852 147.403 124.444 150.612 122.821 152.3L122.802 152.317C123.253 148.683 123.938 145.079 124.855 141.523V141.523C125.03 140.979 126.247 140.383 127.698 140.003C128.525 139.629 129.25 139.084 129.818 138.408V138.433C129.829 138.608 129.881 138.779 129.972 138.933C130.063 139.086 130.189 139.219 130.342 139.321C130.547 139.458 130.794 139.531 131.046 139.529C131.171 139.53 131.295 139.514 131.415 139.483C131.605 139.432 131.782 139.349 131.939 139.237L131.606 141.18C131.606 141.18 131.308 142.007 133.017 142.345C132.617 146.415 130.138 176.148 140.761 193.498L140.025 194.648C138.837 193.485 137.797 192.196 136.928 190.807C137.058 191.589 136.915 192.39 136.52 193.09C135.991 194.118 135.718 195.244 135.722 196.385C135.432 195.568 135.309 194.708 135.36 193.848C135.724 192.555 135.842 191.211 135.708 189.88C135.552 188.362 135.3 186.855 134.955 185.366C134.724 187.431 133.093 187.431 132.282 189.499C131.89 190.612 131.28 191.646 130.483 192.548C129.934 193.331 129.6 194.23 129.512 195.163C128.596 192.698 127.74 190.213 126.965 187.78C127.278 186.818 127.446 185.82 127.465 184.814C128.378 184.027 129.261 183.958 129.638 183.458C130.043 182.857 129.873 182.15 130.279 181.39C130.837 180.546 131.304 179.652 131.672 178.721C132.077 176.653 133.297 174.372 132.255 172.142C132.255 172.142 131.732 172.306 131.135 172.52C131.184 172.133 131.284 171.753 131.431 171.389C131.747 168.993 131.611 166.563 131.028 164.211C130.147 164.828 129.329 165.52 128.585 166.279C127.774 167.204 126.378 167.584 125.967 168.732C125.556 169.88 124.75 169.88 124.166 171.021C123.645 171.979 123.334 173.025 123.253 174.097C122.634 171.563 122.216 168.989 122.001 166.397C121.983 165.531 121.98 164.587 121.993 163.581V163.576ZM213.164 241.969C211.351 241.98 209.567 242.401 207.965 243.196C207.944 243.142 207.92 243.092 207.894 243.041C210.022 239.672 212.383 236.437 214.962 233.357C215.546 234.807 215.687 236.381 215.37 237.902C215.052 239.424 214.288 240.832 213.164 241.969ZM202.339 243.196C200.736 242.402 198.953 241.981 197.14 241.969C196.014 240.833 195.248 239.426 194.928 237.905C194.608 236.384 194.746 234.81 195.328 233.359C197.907 236.438 200.268 239.673 202.396 243.041C202.383 243.085 202.36 243.137 202.339 243.196V243.196ZM264.514 219.32C264.63 219.149 264.713 218.96 264.76 218.761C265.23 217.612 265.505 216.401 265.574 215.172C265.34 213.632 264.932 212.119 264.357 210.659C263.773 209.297 262.38 206.145 260.93 205.547C260.93 205.547 259.77 209.138 259.359 210.453C259.098 211.718 258.607 212.932 257.906 214.042C257.584 214.506 257.286 214.986 257.016 215.479C256.926 214.639 256.951 213.791 257.092 212.957C257.322 210.455 253.084 206.54 253.084 206.54C252.993 208.805 252.294 211.012 251.052 212.957C249.909 214.6 249.157 216.454 248.846 218.393C248.707 219.718 248.14 220.971 247.22 221.984C246.016 223.52 247.359 229.974 247.518 230.712C244.825 232.277 242.008 233.796 239.385 235.037C238.599 235.4 237.709 235.773 236.746 236.153C236.926 235.989 237.107 235.859 237.285 235.684C239.16 234.123 240.546 232.112 241.293 229.868C242.544 229.662 239.602 229.363 237.89 229.508C238.89 228.085 240.275 226.14 241.235 224.474C241.989 223.113 234.733 224.908 234.733 224.908C233.947 225.205 233.319 225.431 232.801 225.612C233.331 224.055 233.724 222.459 233.973 220.841C233.916 220.297 230.895 221.221 228.457 222.203C226.653 223.208 224.944 224.357 223.35 225.637C221.201 226.942 220.908 230.204 219.923 231.728C219.4 232.527 218.976 233.38 218.659 234.269C218.665 233.769 218.537 233.275 218.287 232.832C218.037 232.39 217.672 232.014 217.227 231.738V231.738L217.138 231.698C217.103 231.683 217.067 231.67 217.03 231.659C216.899 231.613 216.763 231.579 216.625 231.558C216.161 231.463 215.41 231.352 214.221 231.23C213.189 231.031 212.117 231.127 211.143 231.505C210.17 231.883 209.34 232.527 208.761 233.352C207.677 235.952 206.79 238.621 206.106 241.339C205.807 241.222 205.487 241.158 205.164 241.152C204.841 241.158 204.522 241.221 204.224 241.339C203.538 238.622 202.65 235.953 201.567 233.352C200.987 232.527 200.157 231.883 199.184 231.505C198.21 231.127 197.138 231.031 196.106 231.23C194.917 231.355 194.166 231.475 193.702 231.558C193.564 231.579 193.428 231.613 193.297 231.659L193.189 231.698L193.103 231.738C192.362 232.091 191.632 233.023 191.603 235.253C191.361 233.995 190.85 232.797 190.1 231.73C189.113 230.207 188.823 226.944 186.673 225.639C185.079 224.359 183.371 223.21 181.566 222.205C179.123 221.224 176.105 220.302 176.05 220.844C176.3 222.462 176.692 224.058 177.223 225.615C176.699 225.433 176.079 225.208 175.291 224.911C175.291 224.911 168.029 223.115 168.788 224.477C169.749 226.14 171.144 228.087 172.134 229.51C170.422 229.365 167.476 229.665 168.73 229.871C169.477 232.115 170.863 234.126 172.738 235.687C172.914 235.861 173.097 235.993 173.278 236.155C172.312 235.775 171.419 235.4 170.639 235.039C168.021 233.798 165.202 232.28 162.502 230.715C162.665 229.979 164.008 223.522 162.804 221.987C161.883 220.973 161.316 219.72 161.178 218.396C160.867 216.456 160.114 214.602 158.971 212.96C157.729 211.015 157.031 208.808 156.939 206.543C156.939 206.543 152.701 210.468 152.932 212.96C153.072 213.794 153.098 214.641 153.007 215.481C152.737 214.988 152.44 214.509 152.117 214.044C151.417 212.935 150.925 211.721 150.664 210.455C150.256 209.15 149.094 205.549 149.094 205.549C147.641 206.15 146.245 209.302 145.667 210.661C145.092 212.121 144.684 213.634 144.45 215.175C144.519 216.403 144.793 217.614 145.261 218.764C145.315 218.962 145.403 219.151 145.523 219.323C142.414 217.249 139.723 214.674 137.575 211.719C137.659 210.996 137.954 210.309 138.428 209.734C139.702 208.464 140.725 206.991 141.447 205.385C141.657 204.249 141.657 203.087 141.447 201.951C141.575 200.817 141.769 199.69 142.028 198.575L141.957 198.36H145.337C151.358 202.53 173.026 215.332 198.514 204.904C198.422 205.205 198.285 205.492 198.108 205.758C198.108 205.758 192.632 212.717 205.009 215.079C217.381 212.724 211.91 205.758 211.91 205.758C211.731 205.491 211.593 205.202 211.501 204.899C236.994 215.339 258.668 202.525 264.697 198.36H268.116L268.045 198.575C268.305 199.69 268.499 200.817 268.626 201.951C268.417 203.087 268.417 204.249 268.626 205.385C269.349 206.991 270.371 208.464 271.645 209.734C272.119 210.309 272.414 210.996 272.498 211.719C270.338 214.674 267.634 217.246 264.514 219.316V219.32Z" fill="#C5C8CF"/>
<path d="M244.775 225.831C244.618 225.825 244.462 225.85 244.316 225.902C244.169 225.954 244.035 226.033 243.921 226.134C243.808 226.235 243.717 226.356 243.654 226.491C243.591 226.626 243.557 226.77 243.555 226.917C243.551 227.068 243.58 227.219 243.64 227.359C243.7 227.499 243.789 227.627 243.904 227.734C244.018 227.841 244.154 227.925 244.304 227.981C244.453 228.037 244.614 228.064 244.775 228.06C245.097 228.058 245.406 227.937 245.634 227.723C245.861 227.509 245.99 227.219 245.992 226.917C245.979 226.624 245.844 226.347 245.617 226.144C245.39 225.941 245.088 225.829 244.775 225.831V225.831Z" fill="#C5C8CF"/>
<path d="M251.628 233.71C251.306 233.712 250.997 233.833 250.769 234.047C250.541 234.261 250.412 234.55 250.411 234.853C250.407 235.004 250.436 235.154 250.496 235.294C250.555 235.434 250.645 235.561 250.759 235.668C250.873 235.774 251.008 235.858 251.158 235.914C251.307 235.97 251.467 235.997 251.628 235.993C251.951 235.992 252.26 235.872 252.489 235.658C252.717 235.445 252.846 235.155 252.848 234.853C252.836 234.553 252.703 234.269 252.477 234.057C252.251 233.845 251.948 233.721 251.628 233.71V233.71Z" fill="#C5C8CF"/>
<path d="M267.543 208.804C267.22 208.806 266.912 208.927 266.684 209.141C266.456 209.354 266.327 209.643 266.325 209.945C266.337 210.244 266.469 210.528 266.695 210.74C266.92 210.952 267.223 211.077 267.543 211.088C267.865 211.086 268.175 210.965 268.403 210.751C268.631 210.537 268.76 210.248 268.762 209.945C268.766 209.794 268.737 209.644 268.677 209.504C268.617 209.364 268.527 209.237 268.413 209.13C268.299 209.023 268.163 208.94 268.013 208.884C267.864 208.828 267.704 208.801 267.543 208.804V208.804Z" fill="#C5C8CF"/>
<path d="M276.084 214.461C276.089 214.792 276.231 215.109 276.481 215.343C276.731 215.577 277.069 215.711 277.422 215.714C277.599 215.718 277.774 215.688 277.938 215.626C278.102 215.564 278.25 215.472 278.375 215.355C278.5 215.238 278.598 215.098 278.664 214.944C278.729 214.791 278.761 214.626 278.757 214.461C278.753 214.13 278.611 213.814 278.362 213.581C278.112 213.347 277.775 213.214 277.422 213.21C277.072 213.223 276.741 213.359 276.493 213.591C276.245 213.823 276.099 214.133 276.084 214.461V214.461Z" fill="#C5C8CF"/>
<path d="M279.213 187.76C279.389 187.763 279.565 187.733 279.728 187.672C279.892 187.61 280.04 187.518 280.165 187.401C280.29 187.284 280.388 187.145 280.454 186.992C280.52 186.838 280.552 186.674 280.548 186.509C280.545 186.178 280.403 185.862 280.153 185.628C279.904 185.394 279.566 185.261 279.213 185.258C278.863 185.271 278.532 185.407 278.284 185.639C278.037 185.87 277.892 186.181 277.878 186.509C277.881 186.84 278.023 187.156 278.273 187.39C278.522 187.624 278.86 187.757 279.213 187.76Z" fill="#C5C8CF"/>
<path d="M283.284 162.632C283.107 162.628 282.932 162.658 282.768 162.719C282.604 162.781 282.455 162.873 282.33 162.99C282.205 163.106 282.107 163.246 282.041 163.399C281.975 163.553 281.942 163.717 281.946 163.883C281.961 164.205 282.109 164.51 282.358 164.733C282.607 164.956 282.938 165.081 283.283 165.081C283.627 165.081 283.958 164.956 284.207 164.733C284.456 164.51 284.604 164.205 284.619 163.883C284.623 163.717 284.59 163.553 284.525 163.4C284.459 163.247 284.361 163.107 284.236 162.991C284.111 162.874 283.963 162.782 283.799 162.72C283.635 162.658 283.46 162.628 283.284 162.632V162.632Z" fill="#C5C8CF"/>
<path d="M290.711 142.232C291.058 142.232 291.391 142.103 291.636 141.873C291.882 141.643 292.02 141.331 292.02 141.006C292.02 140.681 291.882 140.369 291.636 140.139C291.391 139.909 291.058 139.779 290.711 139.779C290.364 139.779 290.031 139.909 289.785 140.139C289.54 140.369 289.402 140.681 289.402 141.006C289.402 141.331 289.54 141.643 289.785 141.873C290.031 142.103 290.364 142.232 290.711 142.232Z" fill="#C5C8CF"/>
<path d="M281.25 144.514C281.426 144.517 281.601 144.487 281.764 144.425C281.928 144.364 282.076 144.272 282.201 144.156C282.326 144.039 282.424 143.9 282.49 143.747C282.556 143.594 282.588 143.43 282.585 143.265C282.585 142.933 282.444 142.615 282.194 142.38C281.944 142.146 281.604 142.014 281.25 142.014C280.896 142.014 280.556 142.146 280.306 142.38C280.055 142.615 279.915 142.933 279.915 143.265C279.912 143.43 279.944 143.594 280.01 143.747C280.076 143.9 280.174 144.039 280.299 144.156C280.424 144.272 280.572 144.364 280.735 144.425C280.899 144.487 281.074 144.517 281.25 144.514V144.514Z" fill="#C5C8CF"/>
<path d="M273.294 124.183C273.286 123.859 273.141 123.551 272.89 123.326C272.64 123.102 272.305 122.98 271.959 122.986C271.612 122.986 271.279 123.115 271.033 123.345C270.788 123.575 270.65 123.887 270.65 124.213C270.65 124.538 270.788 124.85 271.033 125.08C271.279 125.31 271.612 125.439 271.959 125.439C272.136 125.443 272.311 125.412 272.475 125.35C272.639 125.288 272.788 125.196 272.913 125.079C273.038 124.961 273.136 124.821 273.201 124.667C273.267 124.514 273.298 124.349 273.294 124.183V124.183Z" fill="#C5C8CF"/>
<path d="M279.04 120.158C279.217 120.162 279.393 120.132 279.557 120.07C279.721 120.008 279.87 119.916 279.995 119.799C280.12 119.682 280.218 119.542 280.284 119.388C280.35 119.235 280.382 119.07 280.378 118.904C280.363 118.582 280.215 118.277 279.966 118.054C279.717 117.831 279.386 117.706 279.041 117.706C278.697 117.706 278.366 117.831 278.117 118.054C277.868 118.277 277.72 118.582 277.705 118.904C277.701 119.07 277.733 119.234 277.798 119.388C277.864 119.541 277.962 119.681 278.087 119.798C278.212 119.915 278.361 120.007 278.524 120.069C278.688 120.131 278.864 120.161 279.04 120.158Z" fill="#C5C8CF"/>
<path d="M292.399 164.101C292.408 164.425 292.554 164.732 292.804 164.956C293.054 165.18 293.389 165.302 293.735 165.296C294.073 165.296 294.398 165.169 294.638 164.945C294.877 164.72 295.012 164.416 295.012 164.098C295.012 163.781 294.877 163.476 294.638 163.252C294.398 163.028 294.073 162.901 293.735 162.901C293.388 162.895 293.052 163.017 292.802 163.242C292.552 163.467 292.407 163.776 292.399 164.101Z" fill="#C5C8CF"/>
<path d="M165.225 225.831C164.912 225.829 164.61 225.941 164.383 226.144C164.156 226.347 164.021 226.624 164.008 226.917C164.01 227.219 164.139 227.509 164.366 227.723C164.594 227.937 164.903 228.058 165.225 228.06C165.386 228.064 165.547 228.037 165.697 227.981C165.846 227.925 165.982 227.841 166.097 227.734C166.211 227.627 166.3 227.499 166.36 227.359C166.42 227.219 166.449 227.068 166.445 226.917C166.443 226.77 166.409 226.626 166.346 226.491C166.283 226.356 166.192 226.235 166.079 226.134C165.965 226.033 165.831 225.954 165.685 225.902C165.538 225.85 165.382 225.825 165.225 225.831V225.831Z" fill="#C5C8CF"/>
<path d="M159.592 234.853C159.59 234.55 159.462 234.261 159.234 234.047C159.006 233.833 158.697 233.712 158.374 233.71C158.055 233.721 157.751 233.845 157.525 234.057C157.299 234.269 157.167 234.553 157.154 234.853C157.156 235.155 157.286 235.445 157.514 235.658C157.742 235.872 158.052 235.992 158.374 235.993C158.535 235.997 158.695 235.97 158.845 235.914C158.994 235.858 159.13 235.774 159.244 235.668C159.358 235.561 159.447 235.434 159.507 235.294C159.567 235.154 159.595 235.004 159.592 234.853Z" fill="#C5C8CF"/>
<path d="M142.457 208.804C142.297 208.801 142.137 208.828 141.987 208.884C141.838 208.941 141.702 209.025 141.589 209.131C141.475 209.238 141.385 209.365 141.325 209.505C141.265 209.645 141.236 209.794 141.24 209.945C141.242 210.247 141.371 210.537 141.599 210.75C141.826 210.964 142.135 211.086 142.457 211.088C142.777 211.077 143.081 210.953 143.307 210.741C143.533 210.529 143.666 210.245 143.677 209.945C143.675 209.643 143.545 209.354 143.317 209.141C143.089 208.927 142.78 208.806 142.457 208.804V208.804Z" fill="#C5C8CF"/>
<path d="M132.58 215.714C132.934 215.711 133.271 215.577 133.521 215.343C133.771 215.109 133.914 214.792 133.918 214.461C133.903 214.133 133.757 213.823 133.509 213.591C133.262 213.359 132.93 213.223 132.58 213.21C132.227 213.214 131.89 213.347 131.641 213.581C131.391 213.814 131.249 214.13 131.245 214.461C131.241 214.626 131.273 214.791 131.339 214.944C131.404 215.098 131.502 215.238 131.627 215.355C131.752 215.472 131.901 215.564 132.064 215.626C132.228 215.688 132.404 215.718 132.58 215.714Z" fill="#C5C8CF"/>
<path d="M130.789 185.258C130.436 185.261 130.099 185.394 129.849 185.628C129.6 185.862 129.458 186.178 129.454 186.509C129.451 186.674 129.483 186.838 129.549 186.992C129.615 187.145 129.713 187.284 129.837 187.401C129.962 187.518 130.111 187.61 130.274 187.672C130.438 187.733 130.613 187.763 130.789 187.76C131.143 187.757 131.48 187.624 131.73 187.39C131.979 187.156 132.121 186.84 132.125 186.509C132.111 186.181 131.966 185.87 131.719 185.639C131.471 185.407 131.139 185.271 130.789 185.258V185.258Z" fill="#C5C8CF"/>
<path d="M123.81 188.793C123.814 188.628 123.782 188.463 123.716 188.31C123.65 188.157 123.552 188.018 123.427 187.901C123.303 187.784 123.154 187.692 122.99 187.63C122.827 187.568 122.652 187.538 122.475 187.542C122.121 187.542 121.782 187.674 121.531 187.908C121.281 188.143 121.14 188.461 121.14 188.793C121.14 189.125 121.281 189.443 121.531 189.677C121.782 189.912 122.121 190.044 122.475 190.044C122.652 190.047 122.827 190.017 122.99 189.955C123.154 189.894 123.303 189.802 123.427 189.685C123.552 189.568 123.65 189.429 123.716 189.275C123.782 189.122 123.814 188.958 123.81 188.793V188.793Z" fill="#C5C8CF"/>
<path d="M126.718 165.134C127.072 165.13 127.41 164.998 127.66 164.764C127.91 164.53 128.052 164.214 128.056 163.883C128.041 163.56 127.893 163.255 127.644 163.032C127.396 162.809 127.064 162.685 126.72 162.685C126.375 162.685 126.044 162.809 125.795 163.032C125.546 163.255 125.399 163.56 125.383 163.883C125.387 164.213 125.528 164.53 125.778 164.764C126.028 164.998 126.365 165.13 126.718 165.134Z" fill="#C5C8CF"/>
<path d="M119.292 142.232C119.639 142.232 119.972 142.103 120.217 141.873C120.463 141.643 120.601 141.331 120.601 141.006C120.601 140.681 120.463 140.369 120.217 140.139C119.972 139.909 119.639 139.779 119.292 139.779C118.945 139.779 118.612 139.909 118.366 140.139C118.121 140.369 117.983 140.681 117.983 141.006C117.983 141.331 118.121 141.643 118.366 141.873C118.612 142.103 118.945 142.232 119.292 142.232Z" fill="#C5C8CF"/>
<path d="M128.753 142.019C128.4 142.022 128.062 142.155 127.812 142.389C127.563 142.623 127.421 142.939 127.417 143.27C127.417 143.602 127.558 143.92 127.809 144.155C128.059 144.389 128.399 144.521 128.753 144.521C129.107 144.521 129.446 144.389 129.697 144.155C129.947 143.92 130.088 143.602 130.088 143.27C130.084 142.939 129.943 142.623 129.693 142.389C129.443 142.155 129.106 142.022 128.753 142.019V142.019Z" fill="#C5C8CF"/>
<path d="M136.706 124.183C136.702 124.348 136.734 124.513 136.8 124.666C136.866 124.819 136.964 124.958 137.089 125.075C137.214 125.192 137.362 125.284 137.526 125.346C137.689 125.407 137.865 125.438 138.041 125.434C138.388 125.434 138.721 125.305 138.967 125.075C139.212 124.845 139.35 124.533 139.35 124.208C139.35 123.882 139.212 123.57 138.967 123.34C138.721 123.11 138.388 122.981 138.041 122.981C137.869 122.978 137.698 123.006 137.538 123.065C137.378 123.124 137.232 123.211 137.108 123.323C136.984 123.435 136.884 123.568 136.815 123.716C136.746 123.863 136.709 124.022 136.706 124.183Z" fill="#C5C8CF"/>
<path d="M130.959 120.158C131.136 120.162 131.312 120.132 131.476 120.07C131.64 120.008 131.789 119.916 131.914 119.799C132.039 119.682 132.138 119.542 132.203 119.388C132.269 119.235 132.301 119.07 132.297 118.904C132.282 118.582 132.135 118.277 131.886 118.054C131.637 117.831 131.305 117.706 130.961 117.706C130.616 117.706 130.285 117.831 130.036 118.054C129.787 118.277 129.64 118.582 129.624 118.904C129.62 119.07 129.652 119.234 129.718 119.388C129.784 119.541 129.882 119.681 130.007 119.798C130.131 119.915 130.28 120.007 130.444 120.069C130.608 120.131 130.783 120.161 130.959 120.158Z" fill="#C5C8CF"/>
<path d="M117.603 164.101C117.596 163.776 117.451 163.467 117.201 163.242C116.95 163.017 116.615 162.895 116.268 162.901C115.929 162.901 115.604 163.028 115.365 163.252C115.125 163.476 114.991 163.781 114.991 164.098C114.991 164.416 115.125 164.72 115.365 164.945C115.604 165.169 115.929 165.296 116.268 165.296C116.614 165.302 116.949 165.18 117.199 164.956C117.449 164.732 117.594 164.425 117.603 164.101V164.101Z" fill="#C5C8CF"/>
<path d="M189.296 146.589C189.877 146.479 190.05 146.643 190.283 147.133L190.631 147.023L190.283 146.263L192.608 145.338L192.372 144.901L189.124 146.263L189.296 146.589Z" fill="#C5C8CF"/>
<path d="M188.535 142.669L188.071 142.723L188.477 144.411L190.454 144.246L190.396 143.92C190.269 143.875 190.155 143.802 190.064 143.707C189.973 143.612 189.907 143.499 189.872 143.375C189.829 143.188 189.865 142.992 189.974 142.829C190.083 142.667 190.255 142.55 190.454 142.505C190.552 142.469 190.658 142.454 190.764 142.46C190.87 142.466 190.973 142.493 191.066 142.54C191.16 142.586 191.241 142.651 191.306 142.729C191.371 142.808 191.416 142.899 191.441 142.995C191.479 143.073 191.499 143.157 191.499 143.243C191.5 143.328 191.48 143.413 191.441 143.49C191.403 143.568 191.347 143.637 191.277 143.692C191.207 143.747 191.125 143.787 191.037 143.81L191.153 144.246C191.288 144.209 191.413 144.146 191.522 144.063C191.631 143.979 191.72 143.875 191.785 143.758C191.85 143.641 191.889 143.513 191.9 143.382C191.911 143.25 191.894 143.118 191.849 142.993C191.827 142.833 191.769 142.68 191.678 142.544C191.586 142.408 191.465 142.292 191.321 142.205C191.177 142.117 191.015 142.06 190.845 142.037C190.676 142.015 190.503 142.027 190.338 142.073C190.187 142.1 190.043 142.156 189.915 142.237C189.788 142.319 189.679 142.424 189.598 142.547C189.516 142.669 189.462 142.806 189.439 142.949C189.417 143.092 189.426 143.238 189.467 143.378C189.515 143.618 189.661 143.831 189.872 143.974L188.885 144.028L188.535 142.669Z" fill="#C5C8CF"/>
<path d="M188.713 139.949C189.354 140.005 189.527 139.515 189.642 139.299L189.878 138.592C190.048 138.048 190.166 137.886 190.571 137.94C191.095 137.996 191.152 138.541 191.095 138.864C191.037 139.301 190.804 139.792 190.166 139.735L190.108 140.169C190.283 140.202 190.465 140.195 190.637 140.148C190.808 140.101 190.966 140.016 191.095 139.9C191.352 139.629 191.496 139.281 191.501 138.918C191.558 138.317 191.383 137.557 190.514 137.503C190.291 137.467 190.062 137.516 189.877 137.638C189.692 137.759 189.566 137.945 189.527 138.153L189.179 139.134C189.151 139.245 189.085 139.343 188.989 139.412C188.894 139.481 188.776 139.517 188.655 139.515C188.131 139.458 188.074 138.968 188.131 138.644C188.123 138.542 188.139 138.439 188.176 138.344C188.214 138.248 188.274 138.161 188.351 138.088C188.428 138.016 188.521 137.96 188.623 137.924C188.725 137.888 188.834 137.873 188.943 137.881V137.447C188.537 137.447 187.783 137.503 187.665 138.7C187.637 138.848 187.642 139 187.68 139.145C187.719 139.291 187.79 139.427 187.889 139.546C187.988 139.664 188.112 139.761 188.254 139.83C188.396 139.9 188.553 139.94 188.713 139.949V139.949Z" fill="#C5C8CF"/>
<path d="M192.488 134.726L192.082 134.618L191.383 136.581L190.221 136.2L190.86 134.459L190.454 134.297L189.815 136.092L188.768 135.766L189.462 133.863L188.998 133.698L188.184 136.092L191.668 137.128L192.488 134.726Z" fill="#C5C8CF"/>
<path d="M192.998 133.988L191.661 133.203L192.244 132.303C192.332 132.189 192.393 132.06 192.424 131.923C192.455 131.786 192.455 131.645 192.423 131.508C192.392 131.372 192.33 131.242 192.242 131.13C192.154 131.017 192.041 130.922 191.912 130.853C191.801 130.786 191.677 130.742 191.548 130.722C191.418 130.702 191.285 130.708 191.158 130.738C190.86 130.814 190.606 130.996 190.448 131.245L189.663 132.538L192.716 134.341L192.998 133.988ZM190.278 132.342L190.823 131.557C190.868 131.459 190.945 131.376 191.043 131.321C191.14 131.265 191.253 131.239 191.367 131.245C191.462 131.268 191.551 131.308 191.629 131.363C191.977 131.579 191.988 131.854 191.752 132.182L191.291 132.889L190.278 132.342Z" fill="#C5C8CF"/>
<path d="M192.778 129.18L195.103 131.245L195.391 130.919L193.129 128.851L194.001 127.983L193.653 127.711L191.621 129.725L191.912 129.997L192.778 129.18Z" fill="#C5C8CF"/>
<path d="M197.019 129.671L194.813 126.95L194.464 127.222L196.614 129.943L197.019 129.671Z" fill="#C5C8CF"/>
<path d="M199.98 128.039L199.805 127.713L197.831 128.638L197.307 127.657L199.048 126.786L198.876 126.406L197.074 127.274L196.551 126.352L198.467 125.427L198.292 125.047L195.912 126.187L197.598 129.234L199.98 128.039Z" fill="#C5C8CF"/>
<path d="M200.839 127.814L200.376 125.802C200.261 125.54 200.184 125.266 200.145 124.985L201.829 127.598L202.295 127.487L202.64 124.5C202.734 124.763 202.793 125.037 202.816 125.314L203.281 127.276L203.745 127.225L202.991 123.85L202.297 124.014L201.949 127.058L200.266 124.446L199.569 124.556L200.381 127.875L200.839 127.814Z" fill="#C5C8CF"/>
<path d="M205.883 127.254C206.692 127.308 207.192 126.899 207.192 126.352C207.215 126.161 207.163 125.97 207.047 125.812C206.932 125.655 206.759 125.541 206.561 125.493C206.713 125.439 206.843 125.342 206.934 125.215C207.024 125.089 207.071 124.939 207.067 124.787C207.124 124.296 206.805 123.901 206.103 123.847L204.514 123.808L204.347 127.213L205.883 127.254ZM205.046 124.276L205.831 124.352C206.355 124.352 206.54 124.495 206.54 124.821C206.483 125.201 206.255 125.312 205.789 125.253H204.951L205.046 124.276ZM205.831 125.765C206.179 125.765 206.585 125.878 206.585 126.312C206.585 126.639 206.297 126.862 205.831 126.862L204.912 126.786L204.954 125.687L205.831 125.765Z" fill="#C5C8CF"/>
<path d="M208.439 126.158L209.609 126.469C210.19 126.629 210.132 126.943 210.07 127.205C209.949 127.464 209.891 127.745 209.902 128.027L210.488 128.184V128.155C210.373 128.044 210.386 127.983 210.447 127.762L210.528 127.173C210.703 126.739 210.528 126.577 210.36 126.469C210.596 126.359 210.957 126.29 211.075 125.805C211.305 125.098 210.776 124.792 210.198 124.627L208.564 124.119L207.604 127.451L208.064 127.566L208.439 126.158ZM209.022 124.708L210.07 125.059C210.305 125.115 210.661 125.199 210.488 125.687C210.371 126.123 210.041 126.094 209.703 126.04L208.698 125.768L209.022 124.708Z" fill="#C5C8CF"/>
<path d="M213.161 129.673L213.334 129.347L211.476 128.312L212.057 127.33L213.8 128.255L214.033 127.929L212.292 126.948L212.873 126.079L214.732 127.112L214.965 126.732L212.64 125.481L210.839 128.424L213.161 129.673Z" fill="#C5C8CF"/>
<path d="M215.418 131.827C215.576 131.98 215.766 132.1 215.977 132.182C216.187 132.263 216.413 132.303 216.64 132.299C216.867 132.295 217.092 132.248 217.299 132.16C217.506 132.072 217.692 131.945 217.844 131.788C218.035 131.676 218.198 131.528 218.322 131.352C218.446 131.177 218.529 130.979 218.565 130.771C218.6 130.563 218.588 130.35 218.528 130.148C218.468 129.945 218.363 129.756 218.219 129.595L217.258 128.577L214.496 130.73L215.418 131.827ZM217.758 129.945C218.166 130.382 218.106 130.855 217.467 131.395C216.831 131.886 216.242 131.871 215.834 131.434L215.292 130.848L217.216 129.317L217.758 129.945Z" fill="#C5C8CF"/>
<path d="M217.866 135.543L218.272 135.381L217.285 133.532L218.387 133.041L219.256 134.726L219.662 134.508L218.738 132.877L219.785 132.386L220.714 134.182L221.12 134.017L219.9 131.787L216.648 133.311L217.866 135.543Z" fill="#C5C8CF"/>
<path d="M220.939 137.724L218.441 138.048L218.499 138.484L222.044 137.994L221.983 137.67C221.402 137.613 221.347 137.454 221.172 136.909L220.824 136.963L220.939 137.724Z" fill="#C5C8CF"/>
<path d="M221.229 139.708C221.071 139.697 220.913 139.737 220.782 139.822C220.652 139.908 220.557 140.033 220.515 140.177C220.463 139.993 220.35 139.83 220.192 139.71C220.034 139.591 219.84 139.521 219.638 139.512C219.482 139.503 219.327 139.526 219.182 139.581C219.038 139.635 218.908 139.719 218.802 139.826C218.609 140.061 218.505 140.349 218.507 140.645C218.482 140.787 218.491 140.931 218.533 141.069C218.574 141.207 218.647 141.335 218.747 141.443C218.847 141.552 218.971 141.638 219.11 141.697C219.25 141.756 219.401 141.785 219.554 141.784C219.741 141.815 219.934 141.786 220.101 141.701C220.268 141.616 220.399 141.479 220.473 141.315C220.524 141.451 220.622 141.567 220.752 141.645C220.881 141.723 221.034 141.759 221.187 141.747C221.651 141.801 222.148 141.526 222.148 140.766C222.173 140.638 222.168 140.507 222.133 140.382C222.099 140.256 222.036 140.139 221.948 140.039C221.861 139.938 221.751 139.857 221.627 139.8C221.503 139.743 221.367 139.712 221.229 139.708V139.708ZM219.556 141.315C219.033 141.315 218.97 140.92 218.97 140.645C218.964 140.563 218.977 140.481 219.009 140.404C219.041 140.327 219.091 140.258 219.156 140.202C219.22 140.146 219.297 140.104 219.381 140.079C219.464 140.054 219.553 140.048 219.64 140.059C219.726 140.062 219.809 140.082 219.886 140.119C219.962 140.155 220.028 140.207 220.08 140.271C220.132 140.334 220.169 140.408 220.187 140.486C220.205 140.565 220.204 140.646 220.185 140.724C220.196 140.804 220.187 140.885 220.16 140.961C220.132 141.037 220.086 141.107 220.025 141.164C219.965 141.221 219.891 141.264 219.81 141.29C219.728 141.317 219.642 141.325 219.556 141.315V141.315ZM221.229 141.315C221.075 141.285 220.937 141.206 220.838 141.091C220.739 140.977 220.685 140.834 220.685 140.687C220.691 140.557 220.752 140.435 220.854 140.347C220.956 140.26 221.091 140.213 221.229 140.218C221.46 140.218 221.753 140.329 221.69 140.766C221.68 141.2 221.418 141.315 221.229 141.315V141.315Z" fill="#C5C8CF"/>
<path d="M220.708 142.51L220.648 142.944C220.884 142.998 221.462 143.16 221.29 143.761C221.172 144.251 220.766 144.357 220.536 144.251C220.07 144.197 219.952 143.871 219.839 143.491L219.722 143C219.641 142.733 219.485 142.492 219.27 142.301C219.055 142.109 218.79 141.976 218.502 141.913L217.92 144.146L218.329 144.256L218.792 142.46C218.968 142.514 219.201 142.676 219.316 143.164L219.434 143.545C219.609 144.146 219.782 144.577 220.363 144.688C220.504 144.722 220.651 144.73 220.795 144.71C220.939 144.691 221.078 144.644 221.203 144.573C221.327 144.502 221.435 144.408 221.52 144.297C221.605 144.186 221.666 144.061 221.698 143.927C221.748 143.773 221.761 143.61 221.736 143.45C221.712 143.29 221.65 143.138 221.556 143.002C221.461 142.867 221.337 142.753 221.19 142.668C221.044 142.583 220.88 142.529 220.708 142.51Z" fill="#C5C8CF"/>
<path d="M220.02 145.659L219.672 146.366L217.405 145.333L217.174 145.767L220.428 147.183L220.546 146.856C220.08 146.533 220.14 146.312 220.371 145.77L220.02 145.659Z" fill="#C5C8CF"/>
<path d="M200.566 157.676L200.954 157.753L203.621 147.45C203.491 147.433 203.36 147.45 203.226 147.411L200.593 157.596L200.566 157.676Z" fill="#C5C8CF"/>
<path d="M200.185 153.261L200.559 153.384L202.787 147.278C202.661 147.246 202.525 147.207 202.41 147.168L200.216 153.175L200.185 153.261Z" fill="#C5C8CF"/>
<path d="M196.38 157.021L196.736 157.178L201.896 147.018L201.532 146.873L196.427 156.931L196.38 157.021Z" fill="#C5C8CF"/>
<path d="M195.572 155.326L201.166 146.687C201.048 146.631 200.93 146.572 200.818 146.508L195.234 155.133L195.572 155.326Z" fill="#C5C8CF"/>
<path d="M192.124 155.474L192.061 155.547L192.373 155.773L200.331 146.26C200.224 146.192 200.135 146.101 200.027 146.015L192.124 155.474Z" fill="#C5C8CF"/>
<path d="M192.647 153.124L199.679 145.794L199.7 145.774C199.598 145.694 199.491 145.62 199.394 145.529L192.352 152.871L192.647 153.124Z" fill="#C5C8CF"/>
<path d="M199.074 145.259C198.983 145.171 198.91 145.066 198.813 144.972L188.401 153.573L188.663 153.852L199.04 145.284L199.074 145.259Z" fill="#C5C8CF"/>
<path d="M198.501 144.607C198.42 144.506 198.32 144.42 198.239 144.315L192.742 147.95L192.663 148.007L192.893 148.311L198.501 144.607Z" fill="#C5C8CF"/>
<path d="M198.012 143.954C197.941 143.851 197.886 143.739 197.82 143.628L193.972 145.64L194.158 145.963L198.012 143.954Z" fill="#C5C8CF"/>
<path d="M193.407 144.624L193.566 144.965L197.635 143.304C197.574 143.192 197.496 143.091 197.444 142.976L193.407 144.624Z" fill="#C5C8CF"/>
<path d="M192.946 143.479L193.069 143.829L197.195 142.583L197.289 142.556L197.166 142.203L192.946 143.479Z" fill="#C5C8CF"/>
<path d="M197.051 141.806C197.019 141.683 196.977 141.56 196.951 141.445L192.621 142.333L192.707 142.698L197.051 141.806Z" fill="#C5C8CF"/>
<path d="M192.399 141.109L192.446 141.477L196.896 141.03C196.878 140.908 196.868 140.785 196.855 140.662L192.399 141.109Z" fill="#C5C8CF"/>
<path d="M192.328 140.248L196.818 140.206C196.818 140.145 196.8 140.084 196.8 140.022C196.8 139.961 196.818 139.897 196.818 139.836L192.326 139.878L192.328 140.248Z" fill="#C5C8CF"/>
<path d="M192.401 139.107L196.781 139.463H196.857C196.857 139.338 196.883 139.218 196.899 139.095L192.54 138.742H192.441L192.401 139.107Z" fill="#C5C8CF"/>
<path d="M192.543 137.785L196.957 138.683C196.978 138.56 197.006 138.438 197.035 138.322L192.622 137.422L192.543 137.785Z" fill="#C5C8CF"/>
<path d="M192.894 136.686L197.082 137.976L197.142 137.994C197.176 137.876 197.216 137.748 197.26 137.64L193.027 136.335L192.894 136.686Z" fill="#C5C8CF"/>
<path d="M193.425 135.205L193.263 135.543L197.396 137.192C197.446 137.076 197.512 136.968 197.566 136.855L193.511 135.239L193.425 135.205Z" fill="#C5C8CF"/>
<path d="M193.815 134.439L197.742 136.438L197.781 136.458C197.844 136.348 197.901 136.237 197.972 136.132L194.003 134.115L193.815 134.439Z" fill="#C5C8CF"/>
<path d="M194.582 133.421L198.169 135.818C198.244 135.715 198.344 135.631 198.43 135.531L194.812 133.107L194.582 133.421Z" fill="#C5C8CF"/>
<path d="M195.697 132.165L195.436 132.45L198.729 135.114L198.758 135.141C198.844 135.045 198.92 134.945 199.019 134.856L195.779 132.224L195.697 132.165Z" fill="#C5C8CF"/>
<path d="M196.629 131.324L196.341 131.569L199.354 134.532C199.449 134.447 199.559 134.375 199.658 134.287L196.697 131.37L196.629 131.324Z" fill="#C5C8CF"/>
<path d="M197.634 130.568L197.323 130.814L200.051 134.003C200.158 133.929 200.247 133.838 200.357 133.757L197.695 130.632L197.634 130.568Z" fill="#C5C8CF"/>
<path d="M198.891 129.894L198.548 130.075L200.7 133.556L200.719 133.586C200.829 133.519 200.946 133.468 201.064 133.407L198.936 129.972L198.891 129.894Z" fill="#C5C8CF"/>
<path d="M200.009 129.423L199.65 129.58L201.449 133.215C201.569 133.161 201.684 133.1 201.808 133.056L200.051 129.506L200.009 129.423Z" fill="#C5C8CF"/>
<path d="M201.276 129.003L200.904 129.121L202.315 132.906C202.441 132.867 202.577 132.83 202.692 132.796L201.307 129.087L201.276 129.003Z" fill="#C5C8CF"/>
<path d="M202.59 128.628L202.203 128.704L203.08 132.676C203.211 132.649 203.341 132.631 203.47 132.609L202.608 128.709L202.59 128.628Z" fill="#C5C8CF"/>
<path d="M203.991 132.572C204.122 132.558 204.253 132.543 204.384 132.533L203.952 128.478L203.562 128.508L203.991 132.572Z" fill="#C5C8CF"/>
<path d="M205.127 128.442H204.731L204.776 132.494H204.839C204.954 132.494 205.061 132.521 205.171 132.523L205.127 128.532V128.442Z" fill="#C5C8CF"/>
<path d="M205.572 132.509V132.56C205.705 132.56 205.834 132.58 205.964 132.599L206.383 128.505L205.993 128.469L205.572 132.509Z" fill="#C5C8CF"/>
<path d="M206.747 132.722L206.828 132.739L207.69 128.697L207.302 128.626L206.446 132.644C206.543 132.661 206.635 132.702 206.747 132.722Z" fill="#C5C8CF"/>
<path d="M208.936 129.111L208.562 128.994L207.198 132.769L207.169 132.85C207.295 132.886 207.431 132.918 207.546 132.96L208.902 129.2L208.936 129.111Z" fill="#C5C8CF"/>
<path d="M210.14 129.563L209.779 129.411L208.038 133.056L208.012 133.107C208.135 133.159 208.242 133.23 208.363 133.286L210.101 129.651L210.14 129.563Z" fill="#C5C8CF"/>
<path d="M210.855 129.877L208.782 133.343L208.734 133.424L209.08 133.605L211.2 130.058L210.855 129.877Z" fill="#C5C8CF"/>
<path d="M209.407 133.779L209.381 133.811C209.488 133.882 209.58 133.971 209.685 134.057L212.318 130.868L212.376 130.796L212.062 130.571L209.407 133.779Z" fill="#C5C8CF"/>
<path d="M210.077 134.317L210.368 134.562L213.26 131.618L213.329 131.55L213.035 131.304L210.077 134.317Z" fill="#C5C8CF"/>
<path d="M213.924 132.143L210.685 134.861L210.948 135.137L214.188 132.419L213.924 132.143Z" fill="#C5C8CF"/>
<path d="M211.326 135.482L211.255 135.528C211.334 135.627 211.433 135.712 211.517 135.813L214.941 133.438L215.02 133.384L214.79 133.085L211.326 135.482Z" fill="#C5C8CF"/>
<path d="M211.758 136.078L211.68 136.117C211.75 136.225 211.805 136.338 211.871 136.446L215.651 134.451L215.737 134.407L215.541 134.083L211.758 136.078Z" fill="#C5C8CF"/>
<path d="M212.148 136.804L212.093 136.824C212.151 136.936 212.216 137.039 212.269 137.157L216.195 135.541L216.282 135.501L216.12 135.165L212.148 136.804Z" fill="#C5C8CF"/>
<path d="M212.413 137.586C212.457 137.702 212.494 137.832 212.53 137.94L216.544 136.659L216.635 136.63L216.502 136.279L212.413 137.586Z" fill="#C5C8CF"/>
<path d="M212.638 138.266C212.669 138.384 212.703 138.511 212.727 138.626L216.989 137.729L216.897 137.368L212.638 138.266Z" fill="#C5C8CF"/>
<path d="M212.771 139.046C212.789 139.169 212.802 139.291 212.813 139.414L217.001 139.063H217.104L217.064 138.695L212.771 139.046Z" fill="#C5C8CF"/>
<path d="M212.878 140.025C212.878 140.066 212.878 140.106 212.863 140.147L217.172 140.189V139.821L212.844 139.779C212.852 139.86 212.878 139.941 212.878 140.025Z" fill="#C5C8CF"/>
<path d="M212.734 141.376C212.708 141.501 212.679 141.622 212.648 141.742L216.805 142.627L216.894 142.264L212.734 141.376Z" fill="#C5C8CF"/>
<path d="M217.064 141.406L217.106 141.04L212.815 140.599V140.682C212.815 140.778 212.8 140.873 212.787 140.967L216.975 141.398L217.064 141.406Z" fill="#C5C8CF"/>
<path d="M216.462 143.756L216.588 143.405L212.611 142.164L212.517 142.134V142.164C212.483 142.274 212.446 142.384 212.41 142.49L216.376 143.716L216.462 143.756Z" fill="#C5C8CF"/>
<path d="M212.261 142.909C212.211 143.025 212.137 143.13 212.083 143.243L215.886 144.85L215.975 144.889L216.14 144.55L212.263 142.909H212.261Z" fill="#C5C8CF"/>
<path d="M211.708 143.881L215.316 145.843L215.402 145.887L215.596 145.564L211.9 143.564C211.834 143.665 211.774 143.778 211.708 143.881Z" fill="#C5C8CF"/>
<path d="M211.25 144.528L216.63 148.208L216.865 147.901L211.504 144.234C211.42 144.347 211.321 144.43 211.25 144.528Z" fill="#C5C8CF"/>
<path d="M210.925 144.891C210.839 144.987 210.763 145.088 210.664 145.176L220.612 153.673L220.682 153.732L220.944 153.455L210.962 144.931L210.925 144.891Z" fill="#C5C8CF"/>
<path d="M210.08 145.694L216.853 152.999L217.154 152.753L210.392 145.451C210.321 145.512 210.245 145.566 210.169 145.622L210.08 145.694Z" fill="#C5C8CF"/>
<path d="M209.465 146.169L217.12 155.641L217.434 155.417L209.774 145.929C209.669 146.01 209.572 146.098 209.465 146.169Z" fill="#C5C8CF"/>
<path d="M208.674 146.601L213.999 155.113L214.049 155.197L214.389 155.01L209.025 146.425C208.91 146.493 208.792 146.542 208.674 146.601Z" fill="#C5C8CF"/>
<path d="M207.978 146.962L212.879 156.965L212.921 157.046L213.282 156.894L208.326 146.775C208.206 146.837 208.101 146.91 207.978 146.962Z" fill="#C5C8CF"/>
<path d="M207.127 147.212L209.221 153.175L209.253 153.263L209.63 153.146L207.496 147.102C207.368 147.143 207.24 147.175 207.127 147.212Z" fill="#C5C8CF"/>
<path d="M206.318 147.418L208.87 157.627L209.258 157.542L206.705 147.332C206.574 147.362 206.451 147.393 206.318 147.418Z" fill="#C5C8CF"/>
<path d="M168.008 215.236C168.008 215.236 166.767 216.573 167.458 217.709C167.649 217.918 167.886 218.086 168.152 218.201C168.419 218.316 168.709 218.376 169.003 218.376C169.296 218.376 169.586 218.316 169.853 218.201C170.12 218.086 170.356 217.918 170.547 217.709C170.547 217.709 167.563 217.751 168.008 215.236Z" fill="#C5C8CF"/>
<path d="M239.416 217.709C239.607 217.918 239.844 218.086 240.11 218.201C240.377 218.316 240.667 218.376 240.961 218.376C241.254 218.376 241.544 218.316 241.811 218.201C242.078 218.086 242.314 217.918 242.505 217.709C243.194 216.573 241.953 215.236 241.953 215.236C242.403 217.751 239.416 217.709 239.416 217.709Z" fill="#C5C8CF"/>
<path d="M179.215 213.813L178.568 213.453L176.974 215.975L177.621 216.335C177.975 216.492 178.378 216.52 178.752 216.412C179.127 216.305 179.445 216.071 179.644 215.755C179.844 215.439 179.91 215.066 179.831 214.706C179.752 214.347 179.532 214.029 179.215 213.813V213.813Z" fill="#C5C8CF"/>
<path d="M184.44 216.372C184.254 216.291 184.052 216.246 183.846 216.239C183.641 216.232 183.436 216.264 183.244 216.333C183.052 216.401 182.877 216.505 182.728 216.638C182.58 216.772 182.461 216.931 182.38 217.108C182.281 217.279 182.221 217.468 182.202 217.662C182.184 217.856 182.208 218.051 182.273 218.236C182.337 218.421 182.442 218.592 182.579 218.738C182.717 218.884 182.884 219.003 183.072 219.086C183.26 219.169 183.464 219.216 183.672 219.223C183.88 219.23 184.087 219.198 184.281 219.127C184.475 219.057 184.651 218.95 184.8 218.814C184.948 218.678 185.065 218.515 185.144 218.334C185.239 218.163 185.296 217.975 185.311 217.783C185.327 217.59 185.301 217.397 185.235 217.214C185.17 217.031 185.065 216.862 184.929 216.717C184.792 216.573 184.626 216.455 184.44 216.372V216.372Z" fill="#C5C8CF"/>
<path d="M202.554 220.753C202.349 220.744 202.145 220.774 201.953 220.841C201.761 220.907 201.585 221.009 201.435 221.139C201.285 221.27 201.165 221.428 201.081 221.603C200.997 221.778 200.951 221.967 200.946 222.159C200.922 222.353 200.941 222.551 201.001 222.738C201.062 222.926 201.162 223.1 201.298 223.25C201.433 223.399 201.599 223.521 201.787 223.608C201.974 223.695 202.179 223.745 202.387 223.755C202.596 223.765 202.805 223.735 203.001 223.666C203.197 223.597 203.376 223.492 203.526 223.356C203.677 223.219 203.796 223.056 203.876 222.875C203.957 222.694 203.997 222.499 203.994 222.303C204.011 222.112 203.987 221.92 203.923 221.738C203.86 221.556 203.758 221.388 203.623 221.243C203.489 221.098 203.325 220.981 203.142 220.896C202.958 220.812 202.758 220.764 202.554 220.753V220.753Z" fill="#C5C8CF"/>
<path d="M217.29 220.962L216.392 221.182L216.753 222.463L217.653 222.24C217.747 222.224 217.835 222.189 217.913 222.139C217.99 222.088 218.055 222.022 218.104 221.946C218.152 221.87 218.182 221.785 218.192 221.696C218.202 221.608 218.191 221.519 218.161 221.435C218.142 221.347 218.104 221.265 218.048 221.192C217.993 221.12 217.922 221.059 217.839 221.014C217.757 220.97 217.665 220.942 217.57 220.933C217.476 220.924 217.38 220.933 217.29 220.962V220.962Z" fill="#C5C8CF"/>
<path d="M217.538 219.828C217.523 219.752 217.49 219.68 217.442 219.617C217.395 219.554 217.333 219.501 217.261 219.462C217.19 219.424 217.11 219.4 217.028 219.393C216.945 219.386 216.862 219.395 216.784 219.421L215.957 219.627L216.271 220.748L217.112 220.542C217.192 220.525 217.268 220.493 217.334 220.447C217.4 220.4 217.455 220.342 217.495 220.274C217.535 220.207 217.56 220.133 217.567 220.056C217.575 219.979 217.565 219.901 217.538 219.828Z" fill="#C5C8CF"/>
<path d="M223.248 217.483C223.054 217.475 222.861 217.515 222.688 217.598L222.067 217.829L222.62 219.119L223.405 218.827C223.5 218.799 223.586 218.751 223.659 218.688C223.732 218.624 223.789 218.547 223.827 218.461C223.865 218.375 223.882 218.282 223.877 218.189C223.873 218.096 223.846 218.005 223.8 217.922C223.763 217.807 223.691 217.704 223.593 217.626C223.495 217.548 223.375 217.499 223.248 217.483V217.483Z" fill="#C5C8CF"/>
<path d="M228.614 215.653L228.834 216.943L229.942 216.382L228.91 215.506C228.745 215.361 228.489 215.089 228.489 215.089C228.489 215.089 228.573 215.45 228.614 215.653Z" fill="#C5C8CF"/>
<path d="M240.398 215.938L239.089 215.474C239.996 215.125 240.994 215.04 241.953 215.229L240.356 213.877C238.762 212.533 236.769 211.677 234.643 211.424C232.516 211.17 230.357 211.53 228.455 212.457C221.407 216.557 213.277 218.729 204.982 218.729C196.686 218.729 188.556 216.557 181.509 212.457C179.607 211.531 177.449 211.17 175.324 211.424C173.198 211.678 171.206 212.534 169.613 213.877L168.011 215.229C168.97 215.04 169.968 215.125 170.875 215.474L169.566 215.938C171.236 216.556 170.547 217.709 170.547 217.709L172.576 216.021C175.651 217.226 178.634 218.625 181.506 220.208C188.662 223.989 196.764 225.911 204.978 225.777V225.777C213.191 225.912 221.294 223.99 228.45 220.208C231.323 218.625 234.307 217.226 237.382 216.021L239.411 217.709C239.411 217.709 238.728 216.556 240.398 215.938ZM177.398 216.76L176.218 216.107L178.325 212.771L179.506 213.423C179.978 213.685 180.32 214.112 180.456 214.61C180.592 215.108 180.512 215.636 180.232 216.079C179.953 216.521 179.497 216.841 178.966 216.969C178.434 217.097 177.871 217.021 177.398 216.76V216.76ZM180.336 218.31L179.812 218.065L181.77 214.647L182.281 214.905L180.336 218.31ZM182.838 219.554C182.581 219.441 182.35 219.281 182.16 219.083C181.969 218.885 181.823 218.654 181.73 218.402C181.637 218.151 181.598 217.884 181.617 217.618C181.636 217.353 181.711 217.093 181.838 216.855C182.087 216.389 182.521 216.033 183.046 215.862C183.572 215.692 184.148 215.721 184.651 215.944C185.154 216.166 185.544 216.564 185.737 217.053C185.931 217.541 185.913 218.081 185.687 218.558C185.573 218.801 185.408 219.021 185.202 219.204C184.996 219.387 184.752 219.529 184.487 219.622C184.221 219.715 183.938 219.757 183.654 219.746C183.371 219.734 183.092 219.67 182.836 219.556L182.838 219.554ZM188.598 218.391C188.442 218.113 188.189 217.893 187.88 217.77C187.801 217.731 187.715 217.707 187.626 217.699C187.536 217.691 187.447 217.701 187.361 217.726C187.276 217.751 187.197 217.792 187.129 217.847C187.061 217.901 187.005 217.968 186.964 218.042C186.653 218.778 188.603 219.269 188.119 220.439C188.057 220.583 187.963 220.712 187.845 220.82C187.726 220.928 187.585 221.012 187.43 221.066C187.275 221.12 187.11 221.143 186.945 221.134C186.78 221.125 186.619 221.084 186.472 221.013C185.994 220.846 185.606 220.508 185.393 220.074L185.857 219.801C186.027 220.131 186.319 220.393 186.679 220.537C186.757 220.576 186.843 220.6 186.931 220.606C187.019 220.612 187.108 220.601 187.191 220.574C187.274 220.546 187.351 220.503 187.415 220.446C187.48 220.39 187.531 220.321 187.566 220.245C187.891 219.463 185.954 218.953 186.412 217.841C186.48 217.701 186.578 217.575 186.699 217.47C186.82 217.366 186.963 217.286 187.118 217.234C187.273 217.182 187.437 217.16 187.602 217.169C187.766 217.179 187.927 217.218 188.074 217.287C188.48 217.419 188.817 217.691 189.017 218.047L188.598 218.391ZM192.032 222.723C191.824 222.688 191.627 222.612 191.452 222.501C191.277 222.389 191.13 222.245 191.019 222.076C190.908 221.908 190.836 221.719 190.808 221.523C190.78 221.326 190.797 221.127 190.857 220.937L191.548 218.513L192.114 218.656L191.417 221.077C191.348 221.33 191.389 221.598 191.53 221.823C191.672 222.048 191.904 222.211 192.174 222.276C192.444 222.341 192.73 222.303 192.971 222.17C193.211 222.037 193.385 221.821 193.454 221.567L194.145 219.159L194.705 219.298L194.012 221.722C193.963 221.915 193.872 222.097 193.743 222.255C193.615 222.412 193.452 222.543 193.266 222.638C193.08 222.733 192.875 222.79 192.663 222.805C192.452 222.821 192.24 222.794 192.04 222.728L192.032 222.723ZM197.923 223.824L197.362 223.729L196.017 220.935C195.907 220.689 195.781 220.319 195.781 220.319C195.781 220.319 195.752 220.667 195.716 220.885L195.234 223.37L194.663 223.272L195.399 219.443L195.967 219.539L197.305 222.338C197.415 222.568 197.54 222.946 197.54 222.946C197.54 222.946 197.567 222.598 197.606 222.384L198.085 219.897L198.658 219.993L197.923 223.824ZM199.493 223.981L198.917 223.92L199.402 220.069L199.978 220.135L199.493 223.981ZM202.373 224.263C202.091 224.251 201.814 224.185 201.558 224.07C201.303 223.956 201.075 223.795 200.888 223.596C200.7 223.398 200.557 223.166 200.466 222.915C200.375 222.664 200.339 222.398 200.36 222.134C200.406 221.619 200.664 221.141 201.079 220.802C201.495 220.462 202.035 220.287 202.586 220.314C203.136 220.34 203.654 220.567 204.03 220.945C204.405 221.323 204.609 221.824 204.598 222.34C204.59 222.605 204.525 222.865 204.408 223.106C204.29 223.347 204.123 223.563 203.914 223.742C203.706 223.921 203.462 224.059 203.196 224.148C202.93 224.237 202.647 224.276 202.365 224.261L202.373 224.263ZM208.036 224.19L206.085 221.751C205.923 221.543 205.719 221.199 205.719 221.199C205.719 221.199 205.774 221.54 205.782 221.761L205.892 224.271L205.31 224.29L205.143 220.422L205.716 220.402L207.664 222.855C207.824 223.056 208.03 223.4 208.03 223.4C208.03 223.4 207.973 223.059 207.965 222.843L207.858 220.326L208.433 220.302L208.601 224.173L208.036 224.19ZM211.889 223.827L211.235 220L211.808 219.914L212.379 223.275L214.211 223.002L214.292 223.468L211.889 223.827ZM214.769 223.353L213.928 219.544L214.499 219.431L215.339 223.24L214.769 223.353ZM217.751 222.696L216.319 223.049L215.271 219.298L216.672 218.955C216.812 218.902 216.963 218.877 217.114 218.883C217.265 218.889 217.413 218.924 217.548 218.988C217.683 219.051 217.802 219.14 217.898 219.25C217.993 219.36 218.063 219.488 218.101 219.625C218.154 219.787 218.158 219.96 218.112 220.124C218.065 220.289 217.971 220.438 217.84 220.554V220.554C218.057 220.567 218.263 220.646 218.428 220.779C218.593 220.912 218.707 221.091 218.753 221.29C218.801 221.445 218.812 221.608 218.785 221.767C218.759 221.927 218.696 222.079 218.601 222.213C218.506 222.347 218.381 222.461 218.235 222.545C218.088 222.63 217.924 222.684 217.753 222.703L217.751 222.696ZM219.832 222.156L218.523 218.464L220.811 217.755L220.971 218.207L219.232 218.744L219.641 219.899L221.052 219.46L221.214 219.912L219.803 220.348L220.222 221.536L222.054 220.964L222.214 221.415L219.832 222.156ZM225.044 220.37L223.622 219.244L222.8 219.554L223.416 220.984L222.876 221.185L221.34 217.594L222.512 217.154C222.748 217.048 223.003 216.983 223.264 216.963C223.499 216.979 223.724 217.057 223.913 217.19C224.101 217.322 224.246 217.502 224.328 217.708C224.411 217.915 224.429 218.139 224.379 218.355C224.33 218.571 224.215 218.769 224.049 218.926V218.926C224.114 218.961 224.176 219.002 224.232 219.048L225.643 220.135L225.044 220.37ZM227.083 219.512L225.531 216.428L224.243 216.995L224.028 216.568L227.125 215.199L227.34 215.626L226.054 216.193L227.607 219.279L227.083 219.512ZM231.241 217.498L230.301 216.706L228.929 217.405L229.138 218.57L228.615 218.837L227.945 214.758L228.468 214.486L231.759 217.231L231.241 217.498ZM233.348 216.32L232.18 217L229.989 213.706L231.157 213.026C231.388 212.891 231.645 212.8 231.913 212.759C232.181 212.717 232.456 212.725 232.721 212.783C232.986 212.84 233.236 212.946 233.457 213.094C233.678 213.243 233.866 213.43 234.01 213.647C234.154 213.863 234.251 214.104 234.296 214.355C234.34 214.607 234.332 214.864 234.27 215.112C234.209 215.36 234.095 215.595 233.937 215.802C233.779 216.01 233.579 216.186 233.348 216.32Z" fill="#C5C8CF"/>
<path d="M231.39 213.455L230.753 213.826L232.411 216.318L233.047 215.948C233.369 215.729 233.59 215.404 233.666 215.038C233.743 214.673 233.668 214.294 233.458 213.978C233.248 213.661 232.917 213.432 232.534 213.335C232.15 213.238 231.741 213.281 231.39 213.455V213.455Z" fill="#C5C8CF"/>
</g>
</mask>
<g mask="url(#mask0_241_752)">
<rect x="24.6987" y="-14.677" width="684.509" height="371.599" fill="#313945"/>
</g>
<defs>
<clipPath id="clip0_241_752">
<rect width="410" height="467" fill="white"/>
</clipPath>
</defs>
</svg>
