<svg width="32" height="32" viewBox="0 0 32 32" fill="none" xmlns="http://www.w3.org/2000/svg">
<path d="M30.89 26.732L23.332 19.174C24.5102 17.2401 25.1317 15.0185 25.128 12.754C25.128 5.92 19.206 1.61722e-07 12.372 1.61722e-07C10.7472 -0.000262558 9.13829 0.319569 7.63713 0.941228C6.13597 1.56289 4.77199 2.47419 3.62309 3.62309C2.47419 4.77199 1.56289 6.13597 0.941228 7.63713C0.31957 9.13829 -0.000262558 10.7472 1.61723e-07 12.372C1.61723e-07 19.204 5.922 25.126 12.754 25.126C14.9439 25.128 17.0946 24.5452 18.984 23.438L26.582 31.04C26.9393 31.3964 27.4234 31.5965 27.928 31.5965C28.4327 31.5965 28.9167 31.3964 29.274 31.04L31.16 29.154C31.902 28.412 31.632 27.474 30.89 26.732ZM3.808 12.372C3.80774 11.2472 4.02906 10.1333 4.45932 9.09409C4.88959 8.05482 5.52036 7.1105 6.31563 6.31504C7.1109 5.51959 8.05508 4.88859 9.09424 4.45809C10.1334 4.02758 11.2472 3.806 12.372 3.806C17.104 3.806 21.32 8.02 21.32 12.754C21.3195 15.0257 20.4168 17.2042 18.8105 18.8105C17.2042 20.4168 15.0257 21.3195 12.754 21.32C8.022 21.318 3.808 17.102 3.808 12.372V12.372Z" fill="#313945"/>
</svg>
