<svg width="40" height="40" viewBox="0 0 40 40" fill="none" xmlns="http://www.w3.org/2000/svg">
<path d="M5.83398 6.25004C5.83398 6.13953 5.87788 6.03355 5.95602 5.95541C6.03416 5.87727 6.14014 5.83337 6.25065 5.83337H28.7507C28.8612 5.83337 28.9671 5.87727 29.0453 5.95541C29.1234 6.03355 29.1673 6.13953 29.1673 6.25004V22.9167C29.1673 23.2482 29.299 23.5662 29.5334 23.8006C29.7679 24.035 30.0858 24.1667 30.4173 24.1667C30.7488 24.1667 31.0668 24.035 31.3012 23.8006C31.5356 23.5662 31.6673 23.2482 31.6673 22.9167V6.25004C31.6673 5.47649 31.36 4.73463 30.813 4.18765C30.2661 3.64066 29.5242 3.33337 28.7507 3.33337H6.25065C5.4771 3.33337 4.73524 3.64066 4.18826 4.18765C3.64128 4.73463 3.33398 5.47649 3.33398 6.25004V33.75C3.33398 35.36 4.64065 36.6667 6.25065 36.6667H17.9173C18.2488 36.6667 18.5668 36.535 18.8012 36.3006C19.0356 36.0662 19.1673 35.7482 19.1673 35.4167C19.1673 35.0852 19.0356 34.7672 18.8012 34.5328C18.5668 34.2984 18.2488 34.1667 17.9173 34.1667H6.25065C6.14014 34.1667 6.03416 34.1228 5.95602 34.0447C5.87788 33.9665 5.83398 33.8605 5.83398 33.75V6.25004Z" fill="white"/>
<path d="M10.416 11.6666C10.0845 11.6666 9.76655 11.7983 9.53213 12.0327C9.29771 12.2672 9.16602 12.5851 9.16602 12.9166C9.16602 13.2481 9.29771 13.5661 9.53213 13.8005C9.76655 14.0349 10.0845 14.1666 10.416 14.1666H24.5827C24.9142 14.1666 25.2321 14.0349 25.4666 13.8005C25.701 13.5661 25.8327 13.2481 25.8327 12.9166C25.8327 12.5851 25.701 12.2672 25.4666 12.0327C25.2321 11.7983 24.9142 11.6666 24.5827 11.6666H10.416ZM9.16602 19.5833C9.16602 19.2518 9.29771 18.9338 9.53213 18.6994C9.76655 18.465 10.0845 18.3333 10.416 18.3333H17.916C18.2475 18.3333 18.5655 18.465 18.7999 18.6994C19.0343 18.9338 19.166 19.2518 19.166 19.5833C19.166 19.9148 19.0343 20.2328 18.7999 20.4672C18.5655 20.7016 18.2475 20.8333 17.916 20.8333H10.416C10.0845 20.8333 9.76655 20.7016 9.53213 20.4672C9.29771 20.2328 9.16602 19.9148 9.16602 19.5833V19.5833ZM36.2994 27.1333C36.4222 27.0189 36.5207 26.8809 36.589 26.7275C36.6573 26.5742 36.694 26.4087 36.697 26.2408C36.7 26.073 36.6691 25.9063 36.6062 25.7506C36.5434 25.595 36.4498 25.4536 36.3311 25.3349C36.2124 25.2162 36.071 25.1226 35.9153 25.0598C35.7597 24.9969 35.593 24.966 35.4251 24.969C35.2573 24.9719 35.0918 25.0087 34.9385 25.077C34.7851 25.1453 34.6471 25.2438 34.5327 25.3666L26.2493 33.65L22.966 30.3666C22.8516 30.2438 22.7136 30.1453 22.5602 30.077C22.4069 30.0087 22.2414 29.9719 22.0736 29.969C21.9057 29.966 21.739 29.9969 21.5834 30.0598C21.4277 30.1226 21.2863 30.2162 21.1676 30.3349C21.0489 30.4536 20.9553 30.595 20.8925 30.7506C20.8296 30.9063 20.7987 31.073 20.8017 31.2408C20.8047 31.4087 20.8414 31.5742 20.9097 31.7275C20.978 31.8809 21.0765 32.0189 21.1993 32.1333L25.366 36.3C25.6004 36.534 25.9181 36.6655 26.2493 36.6655C26.5806 36.6655 26.8983 36.534 27.1327 36.3L36.2994 27.1333Z" fill="white"/>
</svg>
