<svg width="24" height="32" viewBox="0 0 24 32" fill="none" xmlns="http://www.w3.org/2000/svg">
<path d="M20.9977 32C21.794 32 22.5576 31.6629 23.1207 31.0627C23.6837 30.4626 24 29.6487 24 28.8V3.2C24 2.35131 23.6837 1.53737 23.1207 0.937258C22.5576 0.337142 21.794 0 20.9977 0H3.00225C2.206 0 1.44237 0.337142 0.879339 0.937258C0.316308 1.53737 0 2.35131 0 3.2V28.8C0 29.6487 0.316308 30.4626 0.879339 31.0627C1.44237 31.6629 2.206 32 3.00225 32H20.9977ZM7.50563 4.8H16.5124V8H7.50563V4.8ZM15.3865 14.8C15.383 15.7538 15.026 16.6674 14.3934 17.342C13.7608 18.0165 12.9038 18.3974 12.009 18.4016C10.1551 18.4016 8.63147 16.7776 8.63147 14.8C8.63147 12.8224 10.1551 11.2 12.009 11.2C12.9037 11.2038 13.7607 11.5843 14.3934 12.2586C15.026 12.9329 15.383 13.8464 15.3865 14.8ZM5.25394 25.9008C5.25394 23.2384 8.29822 20.5008 12.009 20.5008C15.7198 20.5008 18.7641 23.2384 18.7641 25.9008V26.8016H5.25394V25.9008Z" fill="#CCCCCC"/>
</svg>
