<svg width="40" height="40" viewBox="0 0 40 40" fill="none" xmlns="http://www.w3.org/2000/svg">
<path d="M18 14C18 13.7348 18.1054 13.4804 18.2929 13.2929C18.4804 13.1054 18.7348 13 19 13H26C26.2652 13 26.5196 13.1054 26.7071 13.2929C26.8946 13.4804 27 13.7348 27 14C27 14.2652 26.8946 14.5196 26.7071 14.7071C26.5196 14.8946 26.2652 15 26 15H19C18.7348 15 18.4804 14.8946 18.2929 14.7071C18.1054 14.5196 18 14.2652 18 14ZM18 20C18 19.7348 18.1054 19.4804 18.2929 19.2929C18.4804 19.1054 18.7348 19 19 19H26C26.2652 19 26.5196 19.1054 26.7071 19.2929C26.8946 19.4804 27 19.7348 27 20C27 20.2652 26.8946 20.5196 26.7071 20.7071C26.5196 20.8946 26.2652 21 26 21H19C18.7348 21 18.4804 20.8946 18.2929 20.7071C18.1054 20.5196 18 20.2652 18 20ZM18 26C18 25.7348 18.1054 25.4804 18.2929 25.2929C18.4804 25.1054 18.7348 25 19 25H26C26.2652 25 26.5196 25.1054 26.7071 25.2929C26.8946 25.4804 27 25.7348 27 26C27 26.2652 26.8946 26.5196 26.7071 26.7071C26.5196 26.8946 26.2652 27 26 27H19C18.7348 27 18.4804 26.8946 18.2929 26.7071C18.1054 26.5196 18 26.2652 18 26ZM16 14C16 14.3978 15.842 14.7794 15.5607 15.0607C15.2794 15.342 14.8978 15.5 14.5 15.5C14.1022 15.5 13.7206 15.342 13.4393 15.0607C13.158 14.7794 13 14.3978 13 14C13 13.6022 13.158 13.2206 13.4393 12.9393C13.7206 12.658 14.1022 12.5 14.5 12.5C14.8978 12.5 15.2794 12.658 15.5607 12.9393C15.842 13.2206 16 13.6022 16 14ZM16 20C16 20.3978 15.842 20.7794 15.5607 21.0607C15.2794 21.342 14.8978 21.5 14.5 21.5C14.1022 21.5 13.7206 21.342 13.4393 21.0607C13.158 20.7794 13 20.3978 13 20C13 19.6022 13.158 19.2206 13.4393 18.9393C13.7206 18.658 14.1022 18.5 14.5 18.5C14.8978 18.5 15.2794 18.658 15.5607 18.9393C15.842 19.2206 16 19.6022 16 20ZM14.5 27.5C14.8978 27.5 15.2794 27.342 15.5607 27.0607C15.842 26.7794 16 26.3978 16 26C16 25.6022 15.842 25.2206 15.5607 24.9393C15.2794 24.658 14.8978 24.5 14.5 24.5C14.1022 24.5 13.7206 24.658 13.4393 24.9393C13.158 25.2206 13 25.6022 13 26C13 26.3978 13.158 26.7794 13.4393 27.0607C13.7206 27.342 14.1022 27.5 14.5 27.5ZM14.17 3C14.3769 2.41484 14.7602 1.90826 15.267 1.55006C15.7739 1.19186 16.3793 0.999675 17 1H23C23.6207 0.999675 24.2261 1.19186 24.733 1.55006C25.2398 1.90826 25.6231 2.41484 25.83 3H29C29.7956 3 30.5587 3.31607 31.1213 3.87868C31.6839 4.44129 32 5.20435 32 6V30C32 30.7956 31.6839 31.5587 31.1213 32.1213C30.5587 32.6839 29.7956 33 29 33H11C10.2044 33 9.44129 32.6839 8.87868 32.1213C8.31607 31.5587 8 30.7956 8 30V6C8 5.20435 8.31607 4.44129 8.87868 3.87868C9.44129 3.31607 10.2044 3 11 3H14.17ZM17 3C16.7348 3 16.4804 3.10536 16.2929 3.29289C16.1054 3.48043 16 3.73478 16 4C16 4.26522 16.1054 4.51957 16.2929 4.70711C16.4804 4.89464 16.7348 5 17 5H23C23.2652 5 23.5196 4.89464 23.7071 4.70711C23.8946 4.51957 24 4.26522 24 4C24 3.73478 23.8946 3.48043 23.7071 3.29289C23.5196 3.10536 23.2652 3 23 3H17ZM14.17 5H11C10.7348 5 10.4804 5.10536 10.2929 5.29289C10.1054 5.48043 10 5.73478 10 6V30C10 30.2652 10.1054 30.5196 10.2929 30.7071C10.4804 30.8946 10.7348 31 11 31H29C29.2652 31 29.5196 30.8946 29.7071 30.7071C29.8946 30.5196 30 30.2652 30 30V6C30 5.73478 29.8946 5.48043 29.7071 5.29289C29.5196 5.10536 29.2652 5 29 5H25.83C25.6231 5.58516 25.2398 6.09174 24.733 6.44994C24.2261 6.80814 23.6207 7.00033 23 7H17C16.3793 7.00033 15.7739 6.80814 15.267 6.44994C14.7602 6.09174 14.3769 5.58516 14.17 5Z" fill="white"/>
</svg>
