<svg width="32" height="26" viewBox="0 0 32 26" fill="none" xmlns="http://www.w3.org/2000/svg">
<path d="M30.2493 0.333374C29.9295 0.333374 22.5702 0.385333 15.9993 3.93104C9.42852 0.385333 2.06918 0.333374 1.74935 0.333374C1.32942 0.333374 0.926696 0.522139 0.629763 0.858141C0.332831 1.19414 0.166016 1.64986 0.166016 2.12504V19.8321C0.166018 20.0725 0.208774 20.3104 0.291739 20.5317C0.374704 20.7531 0.49618 20.9532 0.648932 21.1203C0.957682 21.4571 1.40893 21.6667 1.80318 21.622L2.00427 21.6202C3.08568 21.6202 8.80626 21.7957 15.3296 25.2483C15.3549 25.2626 15.3834 25.2572 15.4088 25.268C15.5972 25.3558 15.7951 25.4167 15.9993 25.4167C16.2036 25.4167 16.4015 25.3558 16.5915 25.268C16.6168 25.2572 16.6453 25.2626 16.6707 25.2483C23.194 21.794 28.9146 21.6202 29.996 21.6202L30.1971 21.622C30.5739 21.6667 31.041 21.4571 31.3513 21.1203C31.6585 20.7817 31.8327 20.3158 31.8327 19.8321V2.12504C31.8327 1.64986 31.6659 1.19414 31.3689 0.858141C31.072 0.522139 30.6693 0.333374 30.2493 0.333374ZM3.33268 4.0045C5.68393 4.20337 10.2693 4.8645 14.416 7.036V20.9071C9.66602 18.8019 5.56518 18.2303 3.33268 18.0834V4.0045ZM28.666 18.0834C26.4335 18.2303 22.3327 18.8019 17.5827 20.9071V7.036C21.7294 4.8645 26.3148 4.20337 28.666 4.0045V18.0834Z" fill="#CCCCCC"/>
</svg>
