<svg width="25" height="32" viewBox="0 0 25 32" fill="none" xmlns="http://www.w3.org/2000/svg">
<path d="M3.6841 32H21.1479C22.033 32 22.7905 31.6354 23.4203 30.9062C24.0501 30.1771 24.382 29.25 24.416 28.125V28C24.416 27 24.1947 26.0625 23.7522 25.1875L15.6841 12V2.6875H16.7564C17.0288 2.6875 17.2841 2.54167 17.5224 2.25C17.7607 1.95833 17.8798 1.64583 17.8798 1.3125C17.8798 0.979167 17.7607 0.677083 17.5224 0.40625C17.2841 0.135417 17.0288 0 16.7564 0H8.07559C7.80325 0 7.54793 0.135417 7.30963 0.40625C7.07133 0.677083 6.95219 0.979167 6.95219 1.3125C6.95219 1.64583 7.07133 1.95833 7.30963 2.25C7.54793 2.54167 7.80325 2.6875 8.07559 2.6875H9.14793V11.875L1.18197 25.0625C0.73942 25.9375 0.518143 26.8333 0.518143 27.75L0.416016 28C0.450058 29.125 0.790484 30.0729 1.43729 30.8438C2.0841 31.6146 2.83304 32 3.6841 32ZM9.14793 16.375L9.70963 15.625C10.5267 14.2083 11.0713 12.6042 11.3437 10.8125V2.6875H13.4884V10.6875C13.7947 12.6458 14.3394 14.2292 15.1224 15.4375L15.6841 16.25L17.8798 19.875H6.95219L9.14793 16.375ZM2.91814 26.6875L5.87985 21.75V22.6875H19.5139L21.9139 26.6875C21.982 26.7708 22.0841 27.1667 22.2203 27.875C22.2203 28.25 22.1096 28.5833 21.8884 28.875C21.6671 29.1667 21.4203 29.3125 21.1479 29.3125H3.6841C3.41176 29.3125 3.16495 29.1667 2.94368 28.875C2.7224 28.5833 2.61176 28.25 2.61176 27.875C2.61176 27.3333 2.71389 26.9375 2.91814 26.6875Z" fill="white"/>
</svg>
