<svg width="32" height="35" viewBox="0 0 32 35" fill="none" xmlns="http://www.w3.org/2000/svg">
<path d="M6.39922 0.449951C4.88748 0.449951 3.43767 1.1295 2.36871 2.33911C1.29975 3.54872 0.699219 5.1893 0.699219 6.89995V24.1C0.699219 25.8106 1.29975 27.4512 2.36871 28.6608C3.43767 29.8704 4.88748 30.55 6.39922 30.55H12.1961C12.1314 30.1963 12.099 29.8361 12.0992 29.475V28.4H6.39922C5.3914 28.4 4.42485 27.9469 3.71221 27.1405C2.99957 26.3341 2.59922 25.2404 2.59922 24.1V6.89995C2.59922 5.75952 2.99957 4.6658 3.71221 3.85939C4.42485 3.05299 5.3914 2.59995 6.39922 2.59995H21.5992C22.607 2.59995 23.5736 3.05299 24.2862 3.85939C24.9989 4.6658 25.3992 5.75952 25.3992 6.89995V9.32085C26.0585 9.44985 26.695 9.62185 27.2992 9.8347V6.89995C27.2992 5.1893 26.6987 3.54872 25.6297 2.33911C24.5608 1.1295 23.111 0.449951 21.5992 0.449951H6.39922ZM27.2992 12.1051C26.6812 11.8475 26.0458 11.6469 25.3992 11.5053C24.4601 11.2998 23.5057 11.1975 22.5492 11.2C17.8277 11.2 13.9992 13.608 13.9992 16.575C13.9992 19.542 17.8277 21.95 22.5492 21.95C27.2707 21.95 31.0992 19.542 31.0992 16.575C31.0992 14.7109 29.5906 13.0705 27.2992 12.1051ZM12.0992 18.1875C11.9743 18.187 11.8506 18.2144 11.7352 18.2683C11.6198 18.3222 11.5149 18.4014 11.4266 18.5014L8.74382 21.5372L7.98952 20.7589C7.8021 20.5776 7.55975 20.4859 7.31367 20.5031C7.06759 20.5203 6.83706 20.6451 6.67079 20.8511C6.50453 21.0571 6.41555 21.3282 6.42267 21.607C6.42978 21.8859 6.53243 22.1507 6.70892 22.3456L8.13392 23.8183C8.31423 24.0046 8.55101 24.1052 8.79512 24.0992C9.03924 24.0932 9.27193 23.981 9.44492 23.7861L12.0992 20.7825V18.1875ZM12.7718 9.27355C12.9502 9.0717 13.0504 8.79792 13.0504 8.51245C13.0504 8.22698 12.9502 7.95321 12.7718 7.75135C12.5934 7.5495 12.3515 7.43609 12.0992 7.43609C11.8469 7.43609 11.605 7.5495 11.4266 7.75135L8.74382 10.7872L7.98952 10.0089C7.8021 9.82758 7.55975 9.73586 7.31367 9.75307C7.06759 9.77028 6.83706 9.89508 6.67079 10.1011C6.50453 10.3071 6.41555 10.5782 6.42267 10.857C6.42978 11.1359 6.53243 11.4007 6.70892 11.5956L8.13392 13.0683C8.31447 13.2543 8.55139 13.3545 8.7955 13.3481C9.03962 13.3417 9.27218 13.2292 9.44492 13.0339L12.7699 9.2714L12.7718 9.27355ZM22.5492 24.1C25.1712 24.1 27.6374 23.4356 29.5184 22.2553C30.0751 21.9048 30.6166 21.4813 31.1011 20.9868L31.0992 29.475C31.0992 32.4441 27.2707 34.85 22.5492 34.85C17.8277 34.85 13.9992 32.442 13.9992 29.475V20.9932C14.4837 21.4877 15.0252 21.907 15.58 22.2574C17.461 23.4399 19.9272 24.1021 22.5492 24.1021V24.1Z" fill="white"/>
</svg>
